<svg width="300" height="238" xmlns="http://www.w3.org/2000/svg">
  <path d="M0 227.158h4.147V0H0z" fill="#009d45"/>
  <path d="M77.317 60.745c0 .864-.777 1.685-2.148 2.401.385-1.816-3.938-2.375-3.938-3.71 0-1.145 1.73-1.756 3.022-1.974.855 1.091 3.064 1.886 3.064 3.283m-4.453 7.649-.76.27s-1.248-1.257-1.527-1.536c-.018.384-.114 1.973-.114 1.973l-1.004.192.218-3.79.734-.13 1.554 1.571c.018-.384.105-1.93.105-1.93l1.021-.27zm-4.27.611c-.375.358-.864.55-1.44.568-.559.017-1.03-.149-1.406-.49-.375-.34-.567-.794-.567-1.327 0-.541.192-1.004.567-1.37.376-.367.856-.568 1.423-.585.56-.018 1.048.148 1.432.488.385.35.585.804.585 1.345 0 .533-.2 1.004-.593 1.371m-3.72.655-1.022.018v-1.965c-.253.297-.864 1.022-.864 1.022s-.611-.725-.856-1.022v1.956l-1.021-.026v-3.685l.855.026a257 257 0 0 0 1.03 1.249l.996-1.24.882-.018zm-5.754-2.864c-.297-.035-.786-.096-1.057-.131v2.759l-1.03-.148v-2.76a63.12 63.12 0 0 1-1.039-.165v-.978c.908.148 2.13.323 3.126.445zm-5.658 1.563-.183-3.632c.558.157 1.772.48 2.4.593l.027.987a18.785 18.785 0 0 1-1.345-.297c0 .044.01.218.01.314.148.035 1.257.315 1.257.315l.035 1.004s-1.013-.253-1.232-.306c0 .026.01.28.018.384.34.114.873.245 1.31.341l.052 1.004c-.864-.166-1.772-.454-2.348-.707m-2.244-5.213c-1.363-.716-2.14-1.537-2.14-2.401 0-1.397 2.2-2.192 3.056-3.283 1.293.227 3.03.83 3.03 1.973 0 1.336-4.33 1.895-3.946 3.711m-3.598-5.378c-1.056.462-1.702.009-2.043-.751l-.847-1.895.908-.472s.847 1.913.856 1.913c.183.41.384.532.76.349.445-.21.445-.402.27-.769l-.882-2.008 1.004-.34.83 1.956c.323.785.253 1.536-.856 2.017m-4.06 2.296-1.877-3.012 1.973-1.284.498.812-1.127.751c.053.087.123.192.175.28l1.091-.734.498.812-1.091.733c.06.096.14.219.2.306l1.17-.777.507.803zm-1.982 1.31-1.877-2.995.82-.55 1.887 3.012zm-2.724 1.624-1.04.567-1.798-3.012 1.1-.594c.384-.21.725-.314 1.03-.323.306 0 .612.07.891.236.28.157.524.375.681.663.402.76.446 1.773-.864 2.463m38.279-9.64 1.37.332c.856.227 1.66 1.013 1.188 2.183-.541 1.336-1.563 1.414-2.558 1.187l-1.205-.297zm5.073 2.087c.166.105.393.28.541.533.175.305.166.663-.035 1.004-.14.235-.323.384-.55.445-.087.026-.175.026-.27.026.026.149.052.315.06.515.044.751.149 1.563.149 1.58-.157-.104-1.022-.654-1.092-.698l-.087-1.039c-.026-.367-.044-.524-.166-.602-.087.157-.646 1.109-.646 1.109l-.89-.463 1.78-3.1c.271.149.944.533 1.206.69m1.624 1.746c.489-.113.969-.035 1.432.227.462.271.768.646.899 1.118.044.157.07.314.07.471 0 .315-.096.62-.28.908-.27.437-.663.716-1.161.821-.48.105-.97.018-1.44-.244-.455-.262-.752-.629-.883-1.1-.13-.463-.06-.926.21-1.363.28-.445.663-.724 1.152-.838m4.349 2.105-1.869 3.056-.873-.533 1.877-3.047zm3.213 1.755-.463.83a18.076 18.076 0 0 1-1.083-.507c-.305.489-1.17 1.86-1.336 2.121l-.916-.41c.009-.018 1.03-1.624 1.37-2.165-.288-.166-.707-.402-.916-.542l.462-.83c.751.455 2.244 1.223 2.882 1.503m-.786 3.405c1.842 0 3.493-2.331 5.798-3.362-5.833 1.703-13.883-8.181-19.358-8.181-1.537 0-3.327.585-4.2 2.698-.925 2.253-1.956 2.995-1.956 3.99 0 .873.795 1.537 2.122 2.244.856.454 1.755.707 1.703 1.52-2.498 1.143-6.628 1.93-11.517 1.93-4.899 0-9.02-.787-11.526-1.93-.043-.813.847-1.066 1.703-1.52 1.336-.707 2.122-1.37 2.122-2.244 0-.995-1.03-1.737-1.956-3.99-.873-2.113-2.655-2.698-4.191-2.698-5.475 0-13.525 9.884-19.358 8.181 2.305 1.03 3.947 3.362 5.798 3.362 4.723 0 10.19-7.099 15.323-7.099.07 0 .149.01.227.01-1.196 1.484-2.863 1.79-2.863 3.29 0 1.049.908 1.677 1.536 3.083.393.882.463 1.502.795 2.742.297 1.1 1.056 3.894 12.39 3.894 11.325 0 12.084-2.794 12.381-3.894.332-1.24.41-1.86.803-2.742.629-1.406 1.528-2.034 1.528-3.082 0-1.502-1.667-1.807-2.864-3.292.08-.009.158-.009.227-.009 5.135 0 10.6 7.099 15.333 7.099m-22.755 2.593a.869.869 0 0 0-.654-.236c-.289.018-.516.105-.69.28a.855.855 0 0 0-.262.646c0 .253.087.445.262.602a.906.906 0 0 0 .663.227.95.95 0 0 0 .681-.279.863.863 0 0 0 .262-.637.747.747 0 0 0-.262-.603m16.014-7.36a.88.88 0 0 0 .69.104.825.825 0 0 0 .541-.393.768.768 0 0 0 .096-.628.847.847 0 0 0-.41-.515c-.236-.131-.463-.175-.699-.123a.896.896 0 0 0-.541.41.791.791 0 0 0-.105.62c.061.228.2.394.428.525m-6.426-3.545c.646.157 1.047.052 1.292-.56.183-.453.043-.811-.699-1.02-.009 0-.043 0-.244-.053-.061.157-.541 1.528-.559 1.58.096.026.21.053.21.053m4.252.471a.181.181 0 0 0 .122-.087.226.226 0 0 0 .026-.105c0-.07-.052-.131-.14-.2l-.27-.158s-.149.253-.219.367c.097.06.236.14.236.14a.28.28 0 0 0 .245.043m-44.13 4.191s-.104.061-.191.105c.07.114.725 1.214.812 1.362.06-.026.21-.113.21-.113.707-.385.628-.865.436-1.162-.367-.576-.83-.41-1.266-.192m39.71-22.492c-.008.358-.113.637-.322.838-.192.183-.454.28-.751.27-.28-.008-.524-.104-.699-.287-.192-.21-.297-.507-.297-.865v-.166c-.122 0-1.152-.018-1.152-.018l.009-.951 3.23.06zm-.497 3.868-.9-.166.21-1.1-.236-.044-.2 1.065-.891-.157.192-1.074-.262-.052-.21 1.144-.89-.157.375-2.078 3.187.576zm-.515 1.554-2 .699 1.476.602-.34.856-2.995-1.214.279-.69 1.973-.68-1.458-.586.34-.855 2.996 1.204zm-1.921 3.877c-.14.227-.507.463-.751.559l-.9-.612c.944-.296 1.005-.567.961-.61-.043-.044-.192.043-.375.13-.34.175-.856.428-1.389.07a1.013 1.013 0 0 1-.419-.637 1.041 1.041 0 0 1 .166-.778c.183-.27.533-.515.9-.637l.899.611-.149.026c-.436.105-.785.358-.873.472-.043.052-.06.096-.052.13 0 .01 0 .019.009.027.087.052.323-.052.506-.14.358-.165.804-.375 1.258-.07a.982.982 0 0 1 .419.612.668.668 0 0 1 .018.183c0 .227-.07.446-.227.664m-2.62 2.942-.646-.637.795-.812-.175-.166-.76.777-.654-.637.768-.777-.192-.184-.838.795-.638-.637 1.493-1.467 2.306 2.261zM63.61 37.537V25.959a8.751 8.751 0 0 1 3.501.908c1.196.594 2.27 1.45 3.196 2.532a12.072 12.072 0 0 1 2.174 3.772c.498 1.388.768 2.855.794 4.366zM63.2 25.26c-.69.018-1.398-.384-1.415-1.3l-.01-1.93.953-.027v1.86c.009.27.043.306.078.35.105.096.227.14.384.13.184-.009.341-.052.42-.14.052-.043.087-.122.087-.392l-.009-1.825.952.009v1.912c0 .376-.123.699-.34.934-.254.271-.62.41-1.101.42M53.123 37.537c.026-1.51.297-2.977.794-4.366a12.223 12.223 0 0 1 2.166-3.772c.925-1.082 2.008-1.938 3.204-2.532a8.8 8.8 0 0 1 3.737-.917v11.587zm-.026-5.833a1.555 1.555 0 0 1-1.197-.122 1.562 1.562 0 0 1-.768-.917 1.656 1.656 0 0 1 .14-1.266c.218-.419.559-.716.969-.838a1.566 1.566 0 0 1 1.187.114 1.562 1.562 0 0 1 .847 1.38c0 .279-.07.55-.218.82a1.66 1.66 0 0 1-.96.83m.052-5.074 2.427 1.913-.567.724-2.428-1.912zm2.375-2.296.593.646-.646.603 1.502 1.624-.672.62-1.502-1.616-.646.594-.603-.655zm6.243.437-.41.881c-.69.166-1.459-.017-1.625-.06-.777.096-1.493-.341-1.746-1.057-.157-.428-.148-.856.026-1.24.192-.41.559-.733 1.048-.917.9-.323 1.825.096 2.148.987.07.174.105.358.105.55 0 .306-.096.629-.271.89.148-.008.428.053.725-.034m4.758-2.489-.637 3.257-.934-.183.646-3.257zM55.21 21.56c0-1.886 5.292-2.044 7.981-2.044h.009c2.69 0 7.98.157 7.98 2.044 0 .515-.331.96-1.09 1.414-1.328-.882-3.598-1.851-6.89-1.851-3.3 0-5.57.97-6.89 1.851-.768-.454-1.1-.9-1.1-1.414m15.944 2.872.56.437-1.948 2.645-.786-.55 1.004-1.292-.969.245-.148-1.022-.917 1.327-.838-.454 1.886-2.707.628.332.219 1.362zm2.218 2.104.393.498-1.711 3.318-.62-.856.314-.576-.62-.803-.55.174-.76-.716zm4.645 10.05c-.297-.235-.672-.576-.925-1.091a86.916 86.916 0 0 1-1.703-.602l-.218-.08-1.327.359-.245-.917 1.327-.35c.018-.034.07-.095.123-.165.192-.253.55-.716.716-.908a47.006 47.006 0 0 0-.865-1.528c-.2-.332-.305-.655-.305-.926l-1.214.638.532 1.082-.82.402-.943-1.938 2.899-1.415.122.245c.079-.097.157-.21.227-.323.087-.149.183-.271.27-.367a16.492 16.492 0 0 0-1.947-2.69 15.346 15.346 0 0 0-3.003-2.601c.585-.385 1.187-.935 1.187-1.852 0-.54-.227-.977-.62-1.318.62-1.99 1.73-4.383 2.672-5.422l-1.982-.847c.515.786.55 1.702.437 2.244-.524-.358-.96-.856-1.11-1.502-.104.602-.427 1.58-.733 2.165.577-.279 1.04-.393 1.616-.148-.332.445-1.197 1.144-2.498.83-.707-.166-1.414-.542-1.38-1.092.019-.323.254-.725.7-.672.436.043.453.698.322.995.568-.323 1.162-1.99.271-2.244-.698-.192-1.345.768-1.572 1.51-.13-.89-.506-1.746-1.204-1.693-.917.06-.62 1.755-.306 2.183.06-.594.384-.908.655-.891.244.018.567.192.515.733-.061.542-.83.874-1.711.874-.839 0-2.314-.262-2.454-1.886.541.096 1.397.515 1.764 1.065a10.795 10.795 0 0 1 0-2.707c-.446.646-1.214.978-1.738 1.057.149-.69.751-1.432 1.44-1.86h-3.614c.699.428 1.292 1.161 1.45 1.86-.524-.097-1.275-.428-1.712-1.057.114 1.022.114 1.72 0 2.707.358-.542 1.188-.952 1.738-1.065-.14 1.624-1.616 1.886-2.454 1.886-.882 0-1.65-.332-1.711-.874-.053-.54.27-.716.515-.733.27-.018.594.297.646.89.323-.427.62-2.121-.297-2.182-.698-.053-1.074.803-1.205 1.694-.236-.743-.873-1.703-1.571-1.51-.891.252-.297 1.92.27 2.243-.13-.297-.113-.952.323-.995.446-.053.681.349.699.672.035.55-.672.926-1.38 1.091-1.3.306-2.156-.375-2.497-.829.594-.253 1.057-.131 1.642.148-.306-.585-.63-1.563-.734-2.165-.148.664-.602 1.161-1.126 1.52-.123-.533-.088-1.468.428-2.262l-1.991.847c.952 1.048 2.06 3.44 2.68 5.44-.375.34-.593.768-.593 1.3 0 .917.593 1.467 1.187 1.852a15.346 15.346 0 0 0-3.003 2.602c-1.363 1.528-2.428 3.309-3.179 5.29l-.105.289c.219.236.437.463.655.707a.469.469 0 0 1 .035-.096c.096-.244.393-.55.611-.698l.996.401c-.41.288-.908.69-.804.795.044.043.262-.131.358-.21.297-.227.734-.593 1.336-.358a.945.945 0 0 1 .55.533c.114.236.114.524.01.795-.123.296-.42.61-.743.812l-.908-.358c.376-.219.734-.63.786-.751.035-.079.035-.14 0-.157-.079-.044-.27.104-.454.244-.192.148-.42.314-.681.375.42.603.707 1.17.725 1.633.026.9.218 1.258.698 1.86.725.908-.018.838.611 1.965a17.652 17.652 0 0 1-.052-.96h9.902v10.8c-.402.009-.847.052-1.188.463 1.153.463 2.305.882 3.397 1.222.096-.707.288-1.056.646-1.493 0 0-1.493-.148-2.27-.183v-10.81h9.665a13.524 13.524 0 0 1-.794 4.314 11.974 11.974 0 0 1-2.174 3.772 10.347 10.347 0 0 1-3.196 2.523c-.288.148-.489.602-.672 1.004-.14.314-.254.629-.306 1.074.454.131.541.219.978.332 3.388.847 4.278.681 4.47.533a15.405 15.405 0 0 0 2.14-2.009c1.362-1.536 2.427-3.335 3.178-5.335a18.615 18.615 0 0 0 1.118-7.744M59.933 23.26a.816.816 0 0 0-.576-.018c-.219.087-.376.218-.454.393a.781.781 0 0 0-.018.576c.052.157.305.664.986.41.192-.07.341-.2.42-.375a.706.706 0 0 0 .07-.297.635.635 0 0 0-.053-.253c-.07-.2-.2-.35-.375-.437m16.31 15.202c.053 0 .114 0 .123-.148v-.183c-.07-.01-.184-.01-.262-.01v.158c0 .078.018.13.043.157.01.009.035.026.096.026m.271-4.147-.297-.594h-.009c-.052.07-.113.166-.174.253-.035.044-.061.096-.096.14.06.018.13.044.2.07.123.043.253.096.376.13m-4.182-6.548-.35.105.184.236zM53 29.495c-.358-.183-.75-.052-.943.314a.727.727 0 0 0-.07.55.687.687 0 0 0 .35.402.693.693 0 0 0 .524.061.741.741 0 0 0 .498-.707.695.695 0 0 0-.359-.62m-.471 14.084v-.01a.774.774 0 0 0-.061-.305c-.157-.41-.56-.593-.952-.445-.402.157-.576.559-.41.97.078.209.218.357.393.436a.69.69 0 0 0 .558 0 .681.681 0 0 0 .472-.646M64.447 54.1a.86.86 0 1 1 0-1.72.859.859 0 1 1 0 1.72M60.3 52.826a.943.943 0 1 1 0-1.886.943.943 0 0 1 0 1.886m-1.423-4.21-.236-.174c-.428-.323-.786-.323-1.179.018-.183.149-.35.34-.506.533l-.245.27.166.132c.445.358.524.76.393.995a.372.372 0 0 1-.236.175c-.227.06-.541-.018-.873-.21l-.166-.105-.105.166-.078.131a.745.745 0 0 0-.123.183c-.2.332-.288.594-.288.804 0 .06.01.113.018.166.07.244.27.366.445.462l.105.061c.21.131.498.297.707.428-.401.219-.803.236-1.204.044-.603-.288-.996-.987-.996-1.327 0-.524.236-1.188.672-1.869l.061-.105-.06-.105a4.081 4.081 0 0 1-.315-.61c.236.034.463.078.681.13l.122.026.08-.087c.261-.288 1.187-1.231 2.051-1.231.393 0 .795.2 1.1.55.219.253.358.55.402.847a9.297 9.297 0 0 1-.393-.297m-5.972.14-.55-.777s.855-.603.951-.673c-.06-.087-.471-.663-.532-.75-.096.06-.952.663-.952.663l-.55-.777 2.646-1.86.54.777-.942.672c.06.08.471.664.533.751.096-.07.951-.672.951-.672l.542.786zM50.25 44.12c-.183-.454-.183-.917 0-1.327.175-.402.498-.707.917-.864.41-.166.856-.158 1.249.018.419.192.733.532.916.986.08.227.123.445.123.673 0 .227-.044.454-.131.654a1.709 1.709 0 0 1-.917.865c-.41.157-.856.157-1.249-.018a1.746 1.746 0 0 1-.908-.987m16.721 7.824c-2.218-.56-4.846-1.502-7.308-2.62l.009-.035c.06-.497-.122-1.047-.498-1.493-.384-.428-.89-.68-1.406-.68-.227 0-.454.051-.663.13a10.464 10.464 0 0 1-1.022-1.039 12.123 12.123 0 0 1-2.165-3.772 13.026 13.026 0 0 1-.638-2.506c-.122.716-.969 1.554-2.357 1.572.026-.149-.018-.367-.14-.402-.367.402-.847.812-2.095.367.192.978.462 1.938.812 2.864.75 2 1.816 3.798 3.178 5.335.445.515.926.986 1.414 1.414a3.094 3.094 0 0 0-.017.288c0 .516.497 1.336 1.222 1.694.585.28 1.222.21 1.807-.21 1.066.577 2.445 1.11 3.912 1.52 1.66.463 3.257.716 4.506.716 1.082 0 2.505-.506 3.911-1.388.56-.358 1.092-.751 1.476-1.118.06-.052.113-.105.157-.148-1.091.157-2.742-.149-4.095-.49M64.386 3.686c-.506-.393-.89-.97-.96-1.563.576.105 1.213.524 1.598 1.021V.716c-.385.498-1.03.917-1.598 1.013.06-.585.428-1.118.916-1.729h-2.34c.49.611.856 1.144.926 1.729-.576-.096-1.222-.515-1.598-1.013v2.427c.376-.497 1.022-.916 1.59-1.021-.07.593-.455 1.17-.961 1.563zm-3.37 2.925a2.21 2.21 0 0 0 2.156 1.72 2.203 2.203 0 0 0 2.157-1.72zm2.62-.865h1.72a2.22 2.22 0 0 0-1.72-1.78zm-.918 0v-1.78a2.23 2.23 0 0 0-1.728 1.78zm1.66 3.318c-.245.123-.516.201-.795.245v3.012h.794zm-2.402 3.257h.786V9.308a2.58 2.58 0 0 1-.786-.245zm2.559-3.798c0 .384.314.698.707.698a.695.695 0 0 0 .698-.698.697.697 0 0 0-.698-.707.704.704 0 0 0-.707.707m2.348-.07a.702.702 0 1 0-.007-1.405.702.702 0 0 0 .007 1.405m1.738-.506a.695.695 0 0 0 .698-.699.695.695 0 0 0-.698-.698.708.708 0 0 0-.707.698c0 .384.323.699.707.699m4.95 1.58a.704.704 0 0 0 .708-.707.697.697 0 0 0-.707-.699.695.695 0 0 0-.699.699c0 .393.314.707.699.707M72.2 8.313a.697.697 0 0 0 .707-.699.71.71 0 0 0-.707-.707.708.708 0 0 0-.699.707c0 .393.315.699.699.699m-1.746-.533a.702.702 0 1 0 .01-1.407.702.702 0 0 0-.01 1.407m3.78 5.352a.697.697 0 0 0-.698.708c0 .384.305.698.698.698a.702.702 0 1 0 0-1.406m.34-1.702a.702.702 0 1 0 .008 1.407.702.702 0 0 0-.007-1.407m-.934-1.004a.702.702 0 1 0 1.404.01.702.702 0 0 0-1.404-.01M61.103 9.22a.702.702 0 1 0 .01-1.405.702.702 0 0 0-.01 1.405m-1.641-.769a.702.702 0 1 0 .01-1.407.702.702 0 0 0-.01 1.407m-1.738-.506a.708.708 0 0 0 .707-.699.708.708 0 0 0-1.414 0c0 .384.323.699.707.699m-4.95 1.58a.702.702 0 0 0 .698-.707.695.695 0 0 0-.699-.699.697.697 0 0 0-.707.699c0 .393.314.707.707.707m1.371-1.213a.702.702 0 0 0 .707-.699.716.716 0 0 0-.707-.707.71.71 0 0 0-.707.707c0 .393.314.699.707.699m1.746-.533a.697.697 0 0 0 .699-.707.695.695 0 0 0-.699-.699.695.695 0 0 0-.698.699c0 .393.306.707.698.707m-3.073 6.06a.702.702 0 1 0-1.407-.01.702.702 0 0 0 1.407.01m-.35-1.703a.702.702 0 1 0-1.404-.01.702.702 0 0 0 1.405.01m-.463-1.004a.702.702 0 1 0-.008-1.405.702.702 0 0 0 .008 1.405m16.38.445c.402.768.751 1.223.699 1.825-.053.594-.681 1.022-.978 1.624-.27-.698-.725-1.231-.673-1.781.061-.542.812-1.266.952-1.668m-10.399 0c-.402.768-.76 1.223-.699 1.825.053.594.682 1.022.978 1.624.271-.698.716-1.231.664-1.781-.052-.542-.803-1.266-.943-1.668m8.365 49.333c-.166-.297-.393-.463-.594-.463-.908 0-.55 2.375-1.624 2.375-.472 0-.725-.297-.725-.637 0-.332.236-.437.236-.699 0-.27-.21-.366-.445-.366-.236 0-.446.096-.446.366 0 .262.236.367.236.699 0 .34-.253.637-.725.637-1.074 0-.716-2.375-1.624-2.375-.2 0-.436.166-.593.463-.175-.34-.28-.681-.28-.934 0-.437.34-1.04 1.04-1.04 1.204 0 .925 1.642 1.501 1.642.253 0 .445-.148.445-.401 0-.472-.838-.908-.838-1.58 0-.673.611-1.24 1.284-1.773.672.532 1.283 1.1 1.283 1.772 0 .673-.838 1.11-.838 1.58 0 .254.183.402.445.402.577 0 .288-1.641 1.502-1.641.707 0 1.04.602 1.04 1.039 0 .253-.106.593-.28.934m-3.152 3.335a.585.585 0 0 1-.585-.585c0-.331.262-.593.585-.593.323 0 .585.262.585.593a.585.585 0 0 1-.585.585m2.392-5.771c-.157 0-.314.018-.445.06V55.96c-1.161-.035-2.515-.262-3.868-.611v3.196a1.405 1.405 0 0 0-.472-.07c-.934 0-1.502.777-1.502 1.502 0 .68.393 1.31.743 1.702.174-.41.34-.742.567-.742.463 0 .253 2.297 1.598 2.358-.044.113-.07.236-.07.366a1.06 1.06 0 0 0 1.057 1.057c.576 0 1.056-.48 1.056-1.057 0-.13-.026-.253-.07-.366 1.345-.061 1.118-2.358 1.581-2.358.227 0 .375.315.576.742.35-.392.751-1.021.751-1.702 0-.725-.576-1.502-1.502-1.502m30.377-17.236c-.358.506-.97.681-1.362.402-.402-.28-.428-.917-.07-1.415.358-.506.96-.69 1.362-.402.393.28.428.917.07 1.415m-2.567 4.06c-.358.498-.97.681-1.362.402-.402-.28-.437-.917-.079-1.423.35-.498.96-.682 1.362-.402.402.28.428.917.079 1.423m-8.897-22.213.018-.043c.305-.935.873-2.803.881-2.82l.018-.07 1.214.471-.157.061c-.227.088-.524.297-.847.585.227.061.532.044.733-.096l.184-.113-.524 1.318-.07-.122c-.079-.14-.314-.437-.541-.524a.985.985 0 0 0-.035.262c0 .48.34.707.672.873.585.306.943.34 1.083.113a.356.356 0 0 0 .043-.157.407.407 0 0 0-.104-.253c-.114-.122-.315-.21-.568-.105l-.087.035-.01-.087c-.034-.35.08-.559.175-.664a.61.61 0 0 1 .472-.21c.2 0 .384.123.506.324.07-.734.48-1.266 1.161-1.476l.061-.018.027.061c.078.236.122.454.122.655 0 .428-.175.803-.533 1.205.288-.052.55.018.681.2.096.158.131.341.088.507-.035.149-.149.358-.454.515l-.079.044-.018-.087a.482.482 0 0 0-.393-.402.376.376 0 0 0-.393.183c-.148.288.061.594.62.9.681.375 1.11.052 1.363-.315-.192-.035-.49.018-.778.201l-.209.131.864-1.615.035.183c.018.087.079.375.323.62.044-.14.105-.35.105-.594 0-.148-.026-.305-.096-.463l-.087-.192 1.78 1.03-.209.019c-.314.034-.61.209-.899.54.332.08.603 0 .69-.034l.183-.061-.969 1.563.009-.253v-.053a1.21 1.21 0 0 0-.218-.724 1.154 1.154 0 0 0-.131.515c0 .288.13.585.541.83.541.322.908.357 1.091.087.08-.131.061-.297-.043-.437-.122-.157-.332-.21-.542-.14l-.087.027v-.087c-.018-.341.105-.542.21-.647a.67.67 0 0 1 .488-.183c.254.026.428.245.524.49.236-.76.655-1.145 1.397-1.284l.07-.01.01.062c.025.14.043.27.043.392 0 .542-.254 1.005-.742 1.354.235 0 .436.096.532.28.061.095.096.209.096.322a.771.771 0 0 1-.035.184c-.043.14-.166.34-.489.489l-.087.034-.009-.087c-.026-.28-.21-.41-.367-.445a.369.369 0 0 0-.393.148c-.122.236.088.524.638.882.366.236.794.445 1.31-.009-.193-.157-.568-.21-.725-.21h-.14l.873-1.117-.009.218v.035c0 .236.131.498.288.646a4.24 4.24 0 0 0 .096-.794c0-.088 0-.157-.018-.227l-.026-.175 1.022.821-.052.052c-.01.018-1.345 1.441-2 2.166l-.035.043zm10.757 12.11c.009-.139.043-.34.21-.488v-.01a.702.702 0 0 1 .506-.174c.314.01.637.166.89.437.245.262.393.602.376.908 0 .148-.035.35-.201.498a.684.684 0 0 1-.515.174c-.306 0-.638-.166-.882-.428-.253-.262-.393-.602-.384-.916m3.911 17.96c.061-.297.28-.602.577-.794.305-.201.655-.28.96-.227.149.035.34.113.463.296a.723.723 0 0 1 .087.533c-.06.306-.279.603-.585.803-.523.34-1.17.306-1.414-.078a.644.644 0 0 1-.087-.533m-18.59-27.059c-.018.306-.14.594-.34.769a.575.575 0 0 1-.41.165c-.367-.026-.656-.445-.656-.934 0-.026 0-.052.01-.079.017-.305.13-.585.331-.76a.532.532 0 0 1 .42-.165.548.548 0 0 1 .4.21c.176.191.263.488.245.794m5.754-11.805c.297-.585 0-1.476 1.057-1.476.524 0 .995.524 1.624.734-1.022.087-1.947.314-2.68.742m16.738 14.774c.716 1.947 2.121 2.645 3.195 2.148-2.4-.28-.454-4.392-3.545-4.392-.174 0-.349.018-.506.052-.524-.559-1.126-.786-2.017-.786-1.31 0-3.562 1.266-3.562 3.877 0 5.623 6.53 6.12 6.53 11.098 0 1.45-1.09 2.348-2.322 2.348-1.1 0-1.982-1.23-2.907-3.16-.446-.917-1.389-2.183-2.393-3.493.288.218.629.34.96.35.359.008.673-.114.909-.332.235-.219.375-.533.384-.882v-.053c0-.445-.192-.908-.524-1.266-.358-.375-.83-.602-1.284-.61a1.281 1.281 0 0 0-.908.33c-.235.22-.366.534-.384.883v.052c0 .192.035.384.105.576-1.406-1.842-2.715-3.64-2.715-4.627 0-.873.602-1.642 1.344-2.559.035.018.253.14.253.14l.201-.218c.262-.288.812-.882 1.939-2.096l.06-.07.271-.279-.698-.568c.183-.427.349-.881.471-1.388.219.908.673 1.484 1.319 1.301-.428-.934.436-2.183-.131-4.47.532.881 1.31 1.353 1.86 1.187-1.45-1.283.427-3.073-1.459-5.85.62.21 1.03.087 1.301-.218-1.72-.236-.934-2.437-3.955-3.214.76-.14 1.187-.576 1.074-.978-.795.585-1.493-1.065-4.104-1.021-.166-.978-1.065-2.008-2.095-2.506.192.76.017 1.44-.184 2.008l-8.522-8.365c-.253-.235-.384-.288-.454-.2-.07.078-.07.235.096.41l7.317 9.168c-.55.192-1.091.42-1.659.638-.366.122-.637.489-.637.943-1.353.68-2.55 1.51-3.143 2.051-.454.41-.812.507-.41 1.432.148.35-.324 1.214.741.577.69-.41 2.27-1.275 2.506-.734.123.288-.654.655-1.196.856-.532.21-1.109.62-1.021.83.078.2.497-.018.532.2.026.245.201.463.41.463.21 0 .49-.454.664-.306.166.157-.087 1.153-.262 1.406.83-.105 1.362-.89 1.38-1.51.026-.612.192-.76.323-.847.13-.088.28.654.105 1.109.436-.097.9-.673.83-1.738.226-.175.445-.314.62-.314.27 0 .829.768 1.615.768 1.449 0 2.252-1.17 2.34-1.72.07-.445.034-.882-.201-1.205.506.41.68 1.065.68 1.554 0 2.052-3.623 3.021-5.116 4.436-.06.052-.113.105-.166.157l-1.702-.664-.114.384c-.009.018-.026.088-.096.315-.175.585-.55 1.798-.786 2.497l-.087.288.157.079c-1.013 1.344-1.825 2.855-2.008 4.392-.41-.42-.795-.769-1.24-1.127.052-.148.079-.305.087-.471.026-.463-.113-.9-.384-1.205a1.142 1.142 0 0 0-.786-.393 1.118 1.118 0 0 0-.83.306c-.052.052-.104.104-.148.157a2.559 2.559 0 0 1-.183-.14c-.559-.428-1.257-.943-1.676-1.406-.184-.2-.367-.305-.743-.305-.148 0-.506-.018-.76-.018-.252 0-.392.192-.68.454-.166.13-.699.55-1.249.969.262.253.515.515.751.795.07.07.14.157.21.235.244-.192.427-.331.558-.436.175-.149.41-.184.629-.184.218 0 .524.166.742.49.157.235 1.537 2.043 2.672 3.3a8.622 8.622 0 0 0-.367.13c-.48.21-1.589.167-2.078.123-.489-.035-.585-.157-.917.367a6.956 6.956 0 0 1-.445.629c-.166.2-.297.427.052 1.012.507.847 1.747 3.091 2.166 4.096.41 1.012.9 1.178 1.694 1.501.803.323 2.148 1.1 2.314 1.275l.052-.768c-.236-.236-.996-.524-1.284-.629-.28-.105-.358-.218-.018-.218.34 0 1.301.34 1.974.61-.201-.759-.926-1.588-1.362-2.06-.577-.157-1.153-.157-1.389.018a.325.325 0 0 1-.323.367c-.227 0-.375-.192-.305-.402.07-.227.419-.305.34-.742-.07-.428-.611-.498-.952-.541-.489-.699-1.047-1.73-1.3-2.148-.254-.41-.105-.646.07-.795.418-.34 1.283.184 3.011.297.603.035 1.371.07 2.148.105.227 2.017 1.03 3.92 3.834 4.628 1.37.34 2.776 1.336 3.265 2.654-5.597-.105-6.47 2.078-6.47 4.139 0 2.34 1.965 2.209 1.965 3.955 0 1.537-4.698 2.165-6.121 2.375-1.205.175-1.886.445-2.471 1.022-.576.576-1.161 1.135-2.21 2.182 0 0 .446.105.891.08l.795-1.022c.236-.35.402-.638.559-.612.157.035.043.289-.14.664l-.655 1.091c2.76.192 2.943-.83 2.943-1.257 0-.419-.681-.707-.288-.97.393-.261.733-.078 1.056.289.314.375.42.681 1.179.402 0 0 6.016-2.498 6.776-2.847.68-.305.488-.602.078-.943-.445-.367-.524-.969-.524-1.598 0-1.816 1.1-2.383 3.056-2.348a8.182 8.182 0 0 0-.06.873c0 2.846 4.295 5.623 5.457 5.623.515 0 1.213-.384 1.257 1.327.026 1.257.28 2.148.06 3.606-.226 1.45-.645 1.677-1.518 2.288-.874.611-1.703 2.532-2.07 2.942.384.254.804.288 1.127-.655.27-.768.585-1.318.916-1.51-.34.856-.593 2.104-.75 2.48 1.1.2 2.872-.804 2.872-1.58 0-.77-.611-.708-.611-1.223 0-.227.28-.49.611-.49.445 0 .777.359.812.516.48-.253.786-.742.769-1.877 0-.428-.018-.89-.044-1.371.026.07.061.13.096.183.218.323.568.524.995.559.402.035.83-.079 1.197-.323.436-.28.733-.707.82-1.153a1.194 1.194 0 0 0-.166-.952 1.24 1.24 0 0 0-.811-.532c-.446-.087-.952.018-1.38.297-.393.262-.681.646-.795 1.056-.087-1.536-.2-3.003-.157-3.588.061-.873.096-1.258-.2-1.389-.289-.13-.612.358-1.03.358-.42 0-1.677-1.16-1.677-2.392 0-1.222 1.318-2.812 1.257-4.488-.026-.524.306-.795.515-.323.262.576.638 1.353 1.205 1.99-.349 2.114 1.974 4.174 3.886 2.638-.952.14-1.598-.699-2.017-1.537.166.026.332.044.515.044.096 0 .192-.01.288-.018.664.838 2.803.768 3.353-1.293-.375.428-1.144.76-1.694.681.803-.62 1.222-1.632 1.222-2.733 0-5.36-6.504-5.98-6.504-10.87 0-1.799 1.58-2.969 2.68-2.969.42 0 .742.131 1.004.323-.41.428-.637 1.074-.602 1.869.174 3.85 6.461 3.658 6.54 5.51.707-2.795-3.982-1.93-4.157-5.694m-22.474 4.376c-.568-.27-.865-.838-.664-1.258.096-.2.28-.296.41-.349.297-.105.655-.07.978.088.332.157.585.427.69.716a.728.728 0 0 1-.018.54c-.096.202-.28.298-.41.35-.297.105-.655.07-.987-.087m-.436-2.13a1.24 1.24 0 0 0-.734.637c-.332.698.088 1.589.926 1.99.462.227.986.271 1.414.114.332-.114.594-.34.734-.629a1.24 1.24 0 0 0 .035-.969 1.86 1.86 0 0 0-.97-1.03 1.85 1.85 0 0 0-1.405-.114m11.508 20.65zm.01-.559a.667.667 0 0 1-.49-.227c-.218-.218-.34-.567-.332-.934.01-.358.14-.69.367-.908a.683.683 0 0 1 .498-.218c.463.018.83.532.82 1.161-.008.367-.14.707-.366.917a.662.662 0 0 1-.498.21m-.847-2.472c-.323.315-.524.786-.532 1.301v.044c0 .498.174.96.489 1.283.244.254.55.402.881.402.324.009.638-.122.891-.367a1.79 1.79 0 0 0 .533-1.3 1.843 1.843 0 0 0-.358-1.188c-.254-.34-.612-.542-1.004-.55a1.262 1.262 0 0 0-.9.375m-9.561-25.696c0-.28.166-.603.454-.839.253-.192.559-.288.83-.253a.569.569 0 0 1 .401.219.592.592 0 0 1 .114.454c-.035.262-.201.541-.454.733-.428.332-.987.35-1.24.035a.591.591 0 0 1-.105-.35m.114-1.274c-.682.524-.882 1.414-.446 1.973.437.56 1.345.585 2.017.061.367-.288.611-.69.664-1.109a1.142 1.142 0 0 0-.219-.864 1.156 1.156 0 0 0-.777-.428 1.696 1.696 0 0 0-1.24.367M94.38 54.493c-.62-.113-1.057-.576-.978-1.03a.734.734 0 0 1 .314-.454c.254-.175.603-.244.96-.175.568.105.996.516.996.926 0 .035-.009.07-.009.105-.087.463-.655.742-1.283.629m-.978-1.939c-.297.2-.49.49-.542.803-.07.385.044.778.332 1.092.27.305.655.515 1.092.594.436.078.873.018 1.23-.175.376-.2.63-.524.69-.9h.01c.13-.759-.507-1.51-1.432-1.684-.507-.088-1.004.009-1.38.27m8.688-2.017a1.625 1.625 0 0 1 3.248 0c0 .9-.733 1.624-1.624 1.624-.89 0-1.624-.725-1.624-1.624m-.559 0a2.19 2.19 0 0 0 2.183 2.183 2.184 2.184 0 0 0 2.183-2.183 2.182 2.182 0 0 0-4.366 0M41.248 6.086c.2.306.27.445.28.69-.15-.061-.324-.21-.525-.48l.105 1.178c.14-.21.253-.349.42-.419-.036.76-.35 1.083-.603 1.135-.323.061-.568-.148-.603-.393-.07-.34.227-.558.524-.253.061-.707-.515-.69-.76-.393.298-.68.175-1.135-.427-1.502-.384.638-.219 1.057.262 1.546-.472-.236-.89.157-.472.681.088-.454.48-.35.577.009.078.314-.219.707-.725.856-.725.227-.96-.245-1.135-.638.157-.096.532-.06.943.201l-.35-1.153c-.165.41-.41.577-.69.708-.026-.34.22-1.013.22-1.013l-1.39.567s.647.306.865.568c-.297.105-.576.157-.986-.026l.55 1.074c.113-.48.358-.769.54-.804.15.402.307.9-.366 1.249-.471.245-.952.166-1.117-.105-.192-.323.026-.672.401-.41-.06-.664-.637-.664-.812-.157.01-.69-.166-1.1-.89-1.293-.175.681.052 1.092.742 1.38-.384-.052-.804.34-.27.812 0-.428.357-.48.558-.192.14.2.113.524-.166.699-.218.148-.664.13-1.222-.385.166-.07.349-.043.593.01l-.742-.917c.035.323.018.558-.043.707-.166-.184-.219-.34-.289-.699l-.567.515c.541.323 1.161.839 1.912 1.878.786-.49 2.2-1.18 3.082-1.537.882-.358 2.375-.856 3.283-1.057-.192-1.266-.104-2.06.053-2.671zm-5.85-1.58.401.881.516-.61.06.025c.044.297.062.813.062 1.1 0 .35.288.638.646.638a.635.635 0 0 0 .297-1.205 5.746 5.746 0 0 1-.708-.663.253.253 0 0 0 .035-.088l.856.079-.34-.908-.638.541c-.018 0-.026-.009-.035-.018l-.044-.934-.89.332.585.698c-.01.026-.026.053-.026.079zm3.222.698a.506.506 0 0 0-.716-.716.517.517 0 0 0 0 .716c.2.2.515.2.716 0m1.144-.847a.5.5 0 0 0 0-.716.5.5 0 0 0-.716 0 .517.517 0 0 0 0 .716c.2.192.515.192.716 0m1.335.218a.5.5 0 0 0 0-.715.498.498 0 0 0-.707 0 .5.5 0 0 0 0 .715c.192.201.515.201.707 0m.114 1.074c.2.201.524.201.716 0a.517.517 0 0 0 0-.716.517.517 0 0 0-.716 0 .517.517 0 0 0 0 .716m-5.737.935a.507.507 0 1 0 0-1.014.507.507 0 0 0 0 1.014m-1.344.087a.5.5 0 0 0 .506-.498.514.514 0 0 0-.506-.515.514.514 0 0 0-.507.515.5.5 0 0 0 .507.498m-.288.603a.507.507 0 1 0-1.014 0 .507.507 0 0 0 1.014 0m.174 1.344a.507.507 0 0 0-.506-.506.5.5 0 0 0-.498.506.5.5 0 0 0 .498.507c.28 0 .506-.227.506-.507m8.828 4.148c-.708.559-1.642.052-2.07-.673.97-.401 2.096-.847 2.856-1.318-.699 1.074-.227 1.554-.786 1.99m-.157 7.344c-.909.393-1.616-.402-1.79-.943-.184-.55-.323-1.004-.114-1.214.393-.384.524-.68.28-1.17-.271-.559-.865-.288-1.502-.14.297-.532.323-.916-.08-.864-.488.061-.497.838-.759.742-.27-.087-.122-.541-.122-.777.009-.332.218-.454.55-.602l2.637-.996c.34-.122.576-.192.812.053.166.165.585.384.454.637-.13.253-.672-.297-1.065 0-.323.244-.035.498.55.672-.568.332-1.179.55-.987 1.144.166.515.463.646 1.013.646.306 0 .515.437.76.943.253.515.332 1.45-.638 1.869M37.676 14.8c-.707.061-.69-.611-1.93-.917.874-.174 2-.62 2.978-.995.184.82-.157 1.834-1.048 1.912m13.622 21.462c-.114-.777-.027-1.51-.908-2.55-.874-1.012-3.764-4.2-4.672-5.23.227-.026.498.027 1.065.55.35.332 1.214 1.18 1.834 1.79a17.889 17.889 0 0 1 4.095-6.295 5.877 5.877 0 0 0-1.85.803c-.036-.89-.237-1.72-.848-2.287.227-1.24.026-2.742-2.76-4.593 1.433.34 2.271 1.641 3.354.646-.97-.026-.996-2.165-4.523-3.938 1.345-.026 2.401 2.148 3.964.917-1.476-.175-1.965-2.785-4.61-3.597.917.104 1.868.558 2.654-.516-.917.219-1.467-.628-2.453-.707.375-1.144.288-1.851-.105-2.707-.699.053-1.406.262-1.912.681-.08-.628-.743-.663-1.328-.62.035.271.166.664-.14.725-.47.088-2.051.515-3.265.987-1.222.471-2.61 1.336-3.012 1.615-.245.166-.463-.227-.611-.419-.428.367-.847.838-.533 1.318-.672.061-1.423.236-2.06.734 0 .795.654 1.554 1.623 1.982-1.632 1.624-.157 3.135-1.598 4.55 2.035.078 1.677-2.743 2.699-3.136-.105 1.983-1.214 2.332-1.214 4.471 0 1.144.68 2.384.079 3.135 1.693-.463 1.248-4.209 2.296-5.344.183.646.079 1.275-.131 1.912-.594 1.746.06 4.148-.864 4.925 1.519-.149 1.868-2.297 2.88-3.52-1.073 2.839-2.252 7.737-3.823 10.033-2.952 3.982-4.69 8.837-7.396 8.837-1.188 0-2.087-.734-2.087-2.244 0-4.523 7.762-7.632 7.762-12.451 0-2.148-1.755-2.97-2.846-2.97-.742 0-1.633.368-2.375.988a2.527 2.527 0 0 0-.917-.201c-2.742 0-2.017 4.924-4.4 4.88.943.525 2.584-.506 3.536-1.885-.402 3.195-5.003 2.348-4.645 6.182.646-3.004 7.98-2.567 7.98-7.125 0-.507-.27-.943-.628-1.284.54-.35 1.065-.48 1.545-.48.873 0 1.676.655 1.676 1.938 0 4.043-7.71 7.448-7.71 12.408 0 .838.245 1.537.638 2.087-.541.227-1.1.122-1.563-.42-.044 1.275 1.781 2.079 2.925 1.441.253.088.524.14.803.157-.349.952-1.528 1.231-2.148 1.197 1.895 1.484 5.196-.472 5.012-2.157 1.502-1.205 2.454-3.283 3.537-4.645-.07.323-.123.637-.175.943-1.1 2.008-2.14 3.815-2.427 6.47-.245 2.209-1.363 4.208-2.925 4.208-.332 0-.9-.445-1.162-.227-.489.42-.026.856-.026 1.266 0 .638-1.214 1.266-1.214 3.214 0 .873.507 1.92.315 2.505.497-.253 1.161-1.082 1.432-2.165.532 2.567-1.1 2.462.078 4.741.149-.75.9-1.065 1.363-.75.462.314.244.54-.097.873-.349.34-.663 2.043.9 1.947-.297-.192-.315-.646.463-.804 1.073-.218 1.38.28 2.523.28.707 0 .908-.926 1.467-.926s.559.437.358.751c.908-.236 1.074-.733 1.074-1.24 0-.506-.42-.82-.096-1.021.314-.192 1.362.026.951.882.533-.105.821-.49.821-1.144 0-.664-.75-1.048-1.458-.926-.122-.419-.733-.637-1.292-.637-1.266 0-1.066.995-1.939.995-1.388 0-2.733-1.807-2.733-4.846 0-1.633 1.755-2.043 2.995-2.576 1.24-.541 3.414-1.868 4.724-4.06 1.022-1.711 1.048-3.588.917-5.806 1.746.995 1.956 2.445 1.956 3.492 0 1.363-.708 1.913-1.258 2.166-.471.218-.628.13-.68.401-.062.35.174.55.375.655.628.323.497.935.68 1.58.175.656.752 1.695 1.738 2.446.096-.402.07-1.057.018-1.895 1.345.655.262 3.353 2.873 3.353-.48-.271-.35-.978-.079-1.083.28-.096.629.183 1.135.882.507.707.367.646 1.607.646 1.231 0 .681-.428 1.327-.428.655 0 .603.76.253 1.31 1.11-.332 1.441-1.161 1.066-2.026.969-.524 1.484.219 1.624.742.96-.951 0-2.104-.751-2.183.026-.357-.297-.733-.708-.76-.401-.025-.794-.051-1.23-.025-.455.026-.708.68-1.232.68-1.633 0-4.872-2.96-4.872-4.243 0-1.283 3.091-2.06 3.091-4.051 0-2.602-2.55-3.493-4.706-5.16.768-.856 3.012-1.057 4.278-.437.14-.725.611-.55.777-1.799.454 1.1-.148 2 .315 2.471.358-.532 1.283-.454 1.23-1.816.28.847-.357 2.148.28 2.724.114-.698.533-.83.795-.83.27 0 .497.184.497.595 0 1.039-1.248.76-1.248 1.938 0 .489.62.655.62.978 0 .323-.507.812-1.135.402.21.445.62.846 1.152.846.568 0 1.179-.454 1.415-1.039.297.751.07 1.572-.463 1.686.559.279 1.903.009 1.746-1.712.76.131 1.161.646.707 1.554.62-.148 1.197-.454 1.197-1.117 0-.507-.507-.856-.42-1.563.07-.568-.715-1.118-.829-1.895m14.94 8.871c-.08 0-.114-.105-.097-.166.035.027.184.08.262.097-.122.026-.087.078-.166.07m-.113.148c-.026.009-.026-.061-.061-.07-.035-.009-.035.026-.01.079-.051-.018-.104-.044-.13.009-.018.043-.01.07.026.105.009.017 0 .052-.018.104-.018.044-.079.114-.157.07-.07-.035-.061-.122-.044-.166.027-.043.044-.079.07-.079.044 0 .07-.009.088-.052.018-.052-.035-.079-.07-.105.044-.018.07-.035.044-.06-.026-.027-.079.026-.088 0-.009-.027.026-.044.044-.053.018-.026.035-.018.06 0l.21.096c.027.018.044.026.044.052 0 .027.009.061-.01.07m-.139-.401c-.035.06-.105.113-.166.052-.052-.061.01-.07-.06-.183a.915.915 0 0 0 .226.13m1.86 0c.018.044.07.097.166.123.9.253 1.938-.42 2.489-.262-.716-.245-1.162.183-1.852.035.402 0 .83-.079.847-.192-.314.2-1.196-.131-1.563.096a.527.527 0 0 0-.07.06c-.279.07-.514.22-.514.42 0 .27.34.34.978.314.628-.026 1.335-.105 1.335.01 0 .165-.454.314-1.056.314-.463 0-1.266-.315-2.27-.053v-.018c.07-.165.288-.419.192-.532.078-.035.14-.096.14-.166-.044-.052-.105-.07-.166-.079.035-.043 0-.087-.035-.113-.01-.01-.026-.105-.053-.123a.767.767 0 0 0-.183-.13c-.105-.044-.166-.044-.21-.062-.017 0-.104.027-.113.027-.052-.01-.105-.01-.122.052-.035-.044-.088-.061-.149-.07a.274.274 0 0 0-.017.236c-.08.009-.166.21-.236.192.026.052.052.079.07.079-.062.122-.088.262-.166.262a.263.263 0 0 0 .078.087 1.585 1.585 0 0 0-.035.568c-.14-.149-.358-.49-.497-.568-.131-.07-.131-.14-.131-.27 0-.123.052-.228.043-.332a.497.497 0 0 0-.035-.105c-.017-.07-.113-.131-.174-.114a.163.163 0 0 1 .07.122c-.027.018-.044.053-.053.053-.026.035-.035.078.01.122v.078c-.01.018-.01.01-.019 0-.026-.087-.07-.2-.14-.209-.008 0-.043-.009-.06-.009.009 0 .009-.009.009-.018 0-.079-.096-.148-.201-.044.026 0 .07.01.087.035a.488.488 0 0 0-.018.088c-.017.087.053.122.14.122.018 0 .035.009.035.018s0 .018.01.035c0 .018-.01.018-.01.009-.157-.061-.218.009-.227.07 0 .009 0 .043.009.06-.052.044-.07.114.026.184 0-.026 0-.088.035-.096.01-.01.018-.01.018-.01.018.01.044.036.044.036.018.009.043 0 .096-.035h.026c.018.009.035.018.044.035.009.009.009.018.009.026-.105.096-.088.192.043.218.018 0 .026.018.026.026-.018.192-.262.158-.253-.026-.13.21.105.376.288.262.018-.009.018 0 .026.01.01.034.027.06.061.069 0-.01.01-.044.044-.044.01 0 .01.01.01.026 0 .044.017.114.095.114-.018-.035 0-.07.018-.07.035 0-.009.288.27.446a.285.285 0 0 0 .315.227c.052.113.114.218.096.218-.035 0-.358-.035-.445.009-.044.035-.122.061-.245.096 0-.009-.052.018-.052.01-.096.017-.174.008-.218-.053-.035-.035-.026-.088-.061-.149-.035-.052-.07-.078-.105-.087h-.07c-.052-.052-.166-.052-.21-.018.036.01.08.018.114.07a.263.263 0 0 1-.035.07c-.018.034 0 .104.192.174.01 0 .027.018.01.026a.13.13 0 0 1-.114-.009c-.07-.06-.088-.148-.175-.096-.009 0-.035.018-.052.026-.009 0-.026-.009-.026-.009-.088-.009-.219.105-.157.21a.146.146 0 0 1 .105-.096.345.345 0 0 1 .017.06c.018.106.061.184.262.044.027-.009.027.01.018.018-.043.079-.183.166-.078.227 0 .01.026.026.043.035v.026c-.026.114.096.192.166.192-.026-.035-.079-.087-.06-.174a.345.345 0 0 0 .06.018c.087-.044.044-.158.105-.192.009-.01.026-.01.026.009 0 .052.026.157.14.148.113-.009.166-.105.157-.166-.009-.009 0-.018.009-.009.044.026.07.07.061.122a.222.222 0 0 0 .079-.078c.026.052.035.122-.053.2.053-.017.166-.07.192-.192.018.01.044.035.044.061.009-.009.009-.009.009-.017a.383.383 0 0 0 .227 0c.018-.01.018 0 .018.009-.01.043-.01.096.018.122 0-.018.035-.061.043-.061.035 0 0 .113.07.183.026-.288.183-.174.367-.297.026-.009.026-.009.018.01a.137.137 0 0 1-.079.095c.079.01.28-.087.28-.2 0-.035.13-.157.174-.498h.079c.244-.026.358-.2.602-.218-.06.07-.087.235-.079.358.01.14.175.279.227.323.01.009 0 .018-.009.018a.523.523 0 0 0-.183.052c-.2.13-.2-.297-.419-.219-.009 0-.044.027-.052.044-.088 0-.201.096-.184.183.027-.026.07-.07.131-.078v.043c0 .035.01.07.088.07.035 0 .052-.018.079-.018.009 0 .026.009.026.026 0 .079-.262-.052-.219.166 0 .01.027.052.044.07-.018.07.044.13.157.096-.018-.01-.06-.044-.052-.079h.052c.01 0 .018 0 .026-.035 0 0 .01-.009.018-.009.01.01.018.01.018.026 0 .01-.018.018-.009.044a.2.2 0 0 0 .018.07c-.009.078.105.166.218.078-.026 0-.104-.009-.113-.052.026-.009.052-.018.052-.026.026-.01.026-.044.035-.079 0-.018.01-.018.018-.018.018 0 .035 0 .052-.009.026 0 .035.01.044.018.018.052.079.096.157.07.148-.044.026-.166.14-.192.018-.01.052-.018.078 0 .114.026.201.043.236-.018.035-.052.018-.253-.105-.323-.07-.035.105-.48-.235-.681.157.035.672.105.76-.018a.9.9 0 0 1 .348.175c.018.026.027.07-.017.096-.14.087-.114.13-.192.148l-.01.009c-.043-.044-.096-.114-.14-.14-.043-.026-.095-.009-.095 0-.079-.018-.192.01-.219.096a.267.267 0 0 1 .149-.009c0 .01-.01.027-.01.027-.008.026.01.052.036.078h-.01.01s.009 0 .009.01c.009 0 .009.017-.01.017-.078-.018-.226-.026-.191.07 0 .009.009.035.018.06-.053.045-.07.123-.044.167.018-.035.026-.053.105-.079.009.018.026.026.035.035.043.052.122-.061.2-.035.01 0 .018.01.01.01-.08.034-.158.086-.123.156a.174.174 0 0 1 .026.044c-.026.06-.009.14.088.174 0-.018-.018-.07-.01-.104.036 0 .08 0 .088-.01.149-.078.052-.183.105-.235.061-.044.131.105.244-.01.027-.017.053-.069.035-.121v-.01.01c.035.026.053.07.123.043-.096-.079.009-.122.043-.183.01-.01.01-.018.026-.01.044.01.105-.008.166-.087-.07.01-.244-.087-.14-.13.158-.062.184-.14.114-.228-.113-.157-.375-.165-.375-.34.105 0 .2-.01.227-.01.786.01 1.283-.217 1.266-.462-.01-.2-.219-.28-.786-.236-.681.044-1.58.131-1.58-.104 0-.114.148-.21.331-.271m-1.854-2.398c.026-.044.044-.079.07-.079.043 0 .07-.018.087-.061.026-.052-.035-.079-.079-.114.053-.009.08-.034.053-.052-.035-.035-.079.018-.096-.009-.01-.026.034-.043.043-.06.026-.019.044-.019.07 0l.227.104c.026.018.044.026.044.061 0 .018.009.07-.018.07-.018.009-.018-.061-.061-.07-.035-.009-.035.035-.01.079-.052-.018-.104-.044-.13.009-.027.043-.01.07.018.105.017.026 0 .07-.018.113-.018.052-.08.122-.157.087-.08-.043-.07-.13-.044-.183m.262-.567c-.044.07-.114.122-.175.06-.06-.06.01-.078-.07-.191.07.052.201.13.245.13m.166.088c.026.035.2.096.27.114-.122.026-.096.078-.174.07-.079 0-.114-.106-.096-.184m2.122-.035c.018.044.07.088.166.114.908.262 1.938-.41 2.488-.254-.716-.253-1.161.175-1.842.035.393 0 .82-.078.838-.192-.306.201-1.188-.14-1.563.096-.018.01-.035.027-.052.044-.376-.009-.908-.018-.908.314 0 .699 1.886.289 2.47.289.455 0 .524.06.524.174 0 .166-.672.21-1.004.21-.515 0-2.052-.262-2.986-.08.079-.156.245-.348.149-.462.087-.035.148-.105.148-.175-.044-.052-.114-.07-.175-.078.035-.044-.009-.088-.034-.131-.01 0-.035-.105-.053-.114a.842.842 0 0 0-.21-.14c-.095-.052-.165-.052-.2-.06-.026-.01-.122.017-.13.017-.053 0-.114 0-.123.053a.29.29 0 0 0-.157-.07.346.346 0 0 0-.027.253c-.078.01-.165.219-.244.192.026.061.052.088.07.088-.061.13-.096.28-.175.28.026.043.052.069.07.078a2.762 2.762 0 0 0-.044.27l-.078-.026c-.018 0-.027 0-.035-.009-.114 0-.184.01-.367-.105-.14-.078-.149-.148-.149-.288 0-.122.061-.235.053-.349a.497.497 0 0 0-.035-.105c-.026-.079-.122-.14-.183-.122.026.018.07.052.07.122a.654.654 0 0 0-.053.061.105.105 0 0 0 0 .131c.018 0 .018.01.018.026 0 .01-.01.027-.018.053 0 .026-.009.009-.009 0-.035-.088-.07-.219-.148-.219-.01 0-.044-.009-.061-.009v-.018c0-.087-.097-.157-.201-.043.026 0 .06.009.079.035 0 .026-.018.078-.018.087-.01.096.06.131.157.131.018 0 .026.01.035.018 0 .009.009.026.009.044.009.009 0 .009-.018.009-.157-.07-.227 0-.227.07v.06c-.053.044-.07.131.035.192 0-.026 0-.087.035-.096.009-.009.017-.009.026-.009.009.01.035.026.043.035.01.01.035.01.088-.035h.035a.191.191 0 0 1 .052.035c.009.01.009.018 0 .026-.114.105-.087.21.052.236.018 0 .026.009.026.035-.017.192-.279.157-.262-.044-.148.227.114.393.306.288.01-.009.018 0 .018 0 .009.044.026.07.07.08 0-.01.009-.044.035-.044.018 0 .018.009.018.017.009.053.026.123.096.131-.01-.043 0-.078.026-.078.035 0 .026-.088.27.043.018.044.044.08.088.096l.183-.026c-.026.131.018.34-.018.34-.035 0-.305-.034-.401.019-.131.07-.454.183-.55.052-.035-.044-.018-.087-.061-.166-.035-.043-.07-.079-.105-.079-.01 0-.044-.009-.079-.009-.052-.052-.175-.06-.218-.017.035.009.087.017.122.078-.018.026-.035.061-.035.061-.026.053-.018.114.192.192.009 0 .026.018.009.026-.026.018-.07.018-.114-.017-.078-.061-.087-.149-.183-.097-.009.01-.035.018-.07.035 0-.009-.009-.009-.017-.009-.088-.009-.227.105-.166.21.009-.026.043-.088.113-.096a.38.38 0 0 1 .018.07c.018.104.061.183.28.043.026-.018.026.009.017.009-.052.096-.192.183-.087.253.01 0 .026.026.052.035 0 .01-.009.018-.009.026-.018.114.105.21.175.201a.255.255 0 0 1-.061-.183.345.345 0 0 0 .061.018c.096-.035.052-.166.114-.21.017-.009.026 0 .026.018.009.053.026.166.157.157.113-.009.174-.104.157-.174 0-.01 0-.018.018-.01.035.027.07.07.052.132.026-.018.07-.044.088-.088a.17.17 0 0 1-.044.21c.044-.018.166-.07.2-.2a.261.261 0 0 1 .044.06c0-.009 0-.009.01-.009.043.01.122.026.244-.009.009 0 .018 0 .018.01-.018.051-.018.104.009.13 0-.018.026-.061.052-.061.035 0 0 .114.07.192.026-.306.28-.236.462-.367.027-.009.035-.009.027.01-.01.043-.035.087-.08.104.21.131.42-.157.481-.314a.106.106 0 0 0 .061-.061c.018.035.018.07-.035.087.2.018.175-.14.262-.13.611.051.14-.516 1.135-.35.061.018.184-.052.236-.105-.07.131-.079.402.07.42a.849.849 0 0 1 .227.095c.018.018 0 .026-.01.026a.587.587 0 0 0-.191.053c-.21.14-.21-.315-.437-.236-.009.009-.044.035-.06.052-.088 0-.21.105-.193.192a.266.266 0 0 1 .149-.078c0 .018 0 .043-.01.043 0 .035.01.079.088.079.044 0 .052-.026.087-.026.018 0 .027.009.027.026 0 .087-.28-.044-.228.183 0 .01.027.053.044.07-.009.07.044.14.166.105-.018-.018-.061-.053-.052-.088.018.01.043.01.052.01.009 0 .026-.01.035-.036 0-.017 0-.017.009-.017s.026.017.026.026c0 .009-.018.026-.018.043 0 .01.01.07.018.08-.009.086.114.174.236.086-.035 0-.114-.017-.122-.06.026-.01.052-.027.06-.027.018-.018.027-.043.027-.078 0-.027.009-.027.026-.027h.052c.026-.009.035 0 .044.018.026.053.087.096.174.07.149-.052.018-.183.14-.21a.145.145 0 0 1 .088 0c.122.027.296.027.323-.034.034-.061.017-.262-.114-.34-.07-.036.009-.123-.061-.237a.987.987 0 0 0 .445.114c.315 0 .463-.044.629-.14a.518.518 0 0 1 .402-.035c.035 0 .07.018.035.07-.07.166-.027.192-.08.262-.051.06-.174.018-.27.009-.052 0-.105.035-.105.044-.087.017-.2.087-.218.183a.33.33 0 0 1 .166-.079c-.01.018-.01.035-.01.035-.017.114.097.157.193.079.009-.018.035 0 .018.018-.079.052-.219.157-.14.2.009 0 .026.018.052.027-.026.07.01.14.07.148-.018-.035-.018-.061.035-.131h.06c.07 0 .07-.14.167-.183.009-.01.018-.01.009.009-.053.078-.088.174-.018.2a.3.3 0 0 0 .052.01c0 .07.07.113.183.06-.017-.009-.07-.034-.07-.07.027-.025.062-.06.07-.069.097-.175-.052-.175-.026-.253.018-.079.175-.026.219-.2 0-.027 0-.08-.044-.106l-.009-.009h.009c.044 0 .087.01.131-.052-.131.009-.061-.105-.061-.166 0-.018 0-.026.018-.035.044-.026.087-.087.096-.183-.052.06-.21.122-.192 0 0 0 .018-.087-.122-.061-.219.018-.524-.026-.926-.061-.026 0-.043-.018 0-.026.402-.026 1.24-.061 1.24-.384 0-.149-.105-.358-.76-.324-.698.035-2.278.271-2.278-.13 0-.201.427-.166.672-.158m-2.505-2.41c.026-.053.043-.088.07-.088.052 0 .078-.009.096-.06.026-.053-.035-.08-.088-.114.061-.018.088-.044.061-.07-.035-.026-.087.026-.105 0-.009-.026.035-.043.053-.06.017-.027.043-.019.07 0l.235.113c.026.009.044.026.044.06 0 .027.009.062-.018.07-.018.01-.018-.06-.061-.078-.035 0-.035.035-.01.087-.06-.018-.113-.044-.139.01-.018.051-.018.078.018.121.018.018.009.061-.01.114-.025.052-.095.13-.174.079-.087-.044-.07-.131-.043-.184m.27-.593c-.034.07-.113.122-.183.06-.06-.06.01-.078-.07-.2.07.052.21.14.254.14m.174.096c.035.026.21.087.288.113-.13.026-.096.079-.183.079-.087-.01-.113-.122-.105-.192m5.326 1.37c0-.008 0-.017.01-.025.052-.027.087-.088.078-.192-.043.06-.2.13-.21.009 0-.01 0-.097-.139-.07-.218.018-.437-.026-.856-.07-.026 0-.043-.018 0-.026.515-.026 1.197-.096 1.197-.367 0-.227-.254-.375-.987-.375-.734 0-3.004.27-3.004-.14 0-.262.76-.157 1.327-.14.027.044.08.079.166.105.943.27 2.035-.445 2.611-.28-.75-.261-1.222.193-1.947.036.428 0 .864-.08.89-.192-.331.21-1.248-.149-1.641.096-.018.018-.044.035-.061.06-.699-.017-1.554-.104-1.554.315 0 .734 2.584.306 3.204.306.62 0 .751.07.751.183 0 .175-.611.218-.96.218-.577 0-2.995-.323-3.956-.026.053-.166.288-.41.184-.541.087-.035.148-.105.148-.184a.302.302 0 0 0-.183-.087c.035-.044 0-.087-.035-.13-.018-.01-.035-.106-.052-.123a.904.904 0 0 0-.219-.149c-.105-.052-.183-.052-.218-.06-.035-.01-.123.017-.14.017-.052-.009-.114-.009-.122.061a.297.297 0 0 0-.166-.078.333.333 0 0 0-.026.262c-.088.009-.183.235-.262.209.035.061.052.087.079.087-.07.14-.097.289-.184.297.053.07.088.105.123.114-.01.07-.018.14-.018.21l-.131-.036c-.053-.009-.105-.009-.114-.009a2.08 2.08 0 0 0-.122-.026c-.114-.009-.2-.192-.402-.305-.148-.088-.148-.158-.148-.315 0-.122.06-.244.052-.358-.009-.009-.026-.078-.044-.122-.017-.07-.13-.14-.192-.122a.18.18 0 0 1 .08.13c-.027.027-.053.062-.062.07-.018.035-.035.08.01.123.008.018.008.018.008.026 0 .018 0 .043-.009.06-.009.027-.009.019-.018 0-.026-.087-.07-.218-.148-.226-.018 0-.052-.01-.07-.01.01 0 .01-.008.01-.008 0-.096-.106-.175-.22-.061.027 0 .07.009.088.043-.009.027-.018.088-.026.097-.009.096.07.13.166.13.026 0 .035.01.035.018.009.018.009.035.018.035 0 .027-.01.018-.018.018-.166-.07-.236 0-.245.079v.07c-.06.035-.07.13.035.2 0-.035 0-.096.044-.113.009 0 .018 0 .018-.01a.186.186 0 0 0 .043.044c.018.01.044.01.105-.034.01-.01.018-.01.035 0 .018.017.026.026.052.034.01.01.01.027 0 .035-.113.105-.096.21.053.236.026.01.026.018.026.035-.01.21-.288.166-.28-.035-.148.236.123.42.323.297.018-.01.027-.01.027.009.009.035.035.07.07.07 0-.01.008-.044.043-.044.009 0 .009.009.009.026.009.053.026.123.105.131-.018-.043 0-.078.026-.078.035 0 .175.296.471.471-.009-.035.114-.079.184-.114.018.061.043.114.105.14l.052-.035c-.026.149.148.288.113.288-.043 0-.331-.034-.419.018-.14.079-.48.201-.585.061-.026-.052-.026-.105-.06-.174-.036-.053-.08-.088-.114-.088-.01 0-.053-.009-.079-.009-.06-.052-.183-.06-.236-.018.044 0 .096.018.131.088-.009.018-.035.06-.035.06-.026.044-.009.123.201.193.018.009.035.026.018.035-.035.009-.079.018-.122-.018-.088-.061-.096-.157-.192-.096-.01 0-.044.018-.07.026h-.026c-.096-.01-.236.105-.175.218.018-.026.044-.087.114-.096.009.026.026.053.026.061.018.114.07.201.288.053.026-.018.026 0 .018.009-.052.096-.2.192-.079.261 0 0 .027.027.044.035 0 .01-.009.018-.009.027-.018.122.114.218.192.218-.035-.035-.087-.105-.07-.192a.345.345 0 0 0 .061.018c.105-.044.061-.175.123-.219.017-.009.026 0 .026.018.009.053.035.175.166.158.122-.01.174-.105.166-.175-.01-.018 0-.018.009-.018a.129.129 0 0 1 .07.14.206.206 0 0 0 .087-.088c.026.053.035.14-.053.219.053-.018.184-.079.21-.219a.285.285 0 0 1 .052.07l.01-.009c.043.018.13.026.252-.009.018 0 .018.009.018.018-.009.044-.009.105.01.13.008-.017.043-.069.06-.069.035 0-.009.131.07.201.035-.323.21-.192.41-.323.026-.018.026-.01.018.009a.201.201 0 0 1-.087.113c.078.053.375-.13.375-.253 0-.035.114-.043.21-.06.21.008.183-.158.27-.15 1.214.167.515-.514 1.93-.383.079.009.105-.07.166-.123-.079.131-.079.41.06.437.07.009.202.052.245.105.018.018.01.026-.009.026a.654.654 0 0 0-.2.052c-.21.149-.227-.332-.454-.244a.361.361 0 0 0-.07.052c-.096-.009-.219.105-.192.2a.288.288 0 0 1 .148-.087v.053c-.009.035.01.07.088.07.043 0 .052-.018.087-.018.018 0 .026.009.026.026 0 .096-.288-.052-.235.192 0 .009.026.052.043.079-.009.07.052.14.183.104-.026-.018-.07-.052-.06-.096.026.01.052.01.06.01.01 0 .018-.01.027-.044 0 0 0-.01.009-.01.018.01.026.019.026.027 0 .018-.018.026-.018.052 0 0 .018.07.026.079-.009.087.122.183.245.087-.035 0-.114-.018-.123-.06.027-.01.053-.019.061-.027.018-.018.027-.044.027-.087 0-.027.009-.027.026-.027h.052c.035 0 .044.01.044.018.035.053.096.105.183.079.157-.061.026-.192.148-.227.027 0 .07-.009.096 0 .123.035.306.035.34-.026.036-.061.019-.288-.121-.358-.07-.044.009-.131-.061-.245.13.053.27.114.462.114.332 0 .437-.052.603-.149.174-.104.358-.043.41-.043.044.009.07.026.061.087-.052.175 0 .192-.043.28-.044.06-.175.009-.28 0a.175.175 0 0 0-.113.043c-.079.018-.184.096-.192.192a.384.384 0 0 1 .157-.078v.034c.009.123.14.166.218.08.01-.01.044 0 .026.017-.078.052-.209.166-.104.21l.052.034c-.018.07.035.149.096.158-.018-.044-.018-.061.018-.14h.06c.08 0 .053-.149.14-.192.01-.018.019-.01.019 0-.044.087-.061.192.009.218.009 0 .034.01.06.018.018.061.097.105.201.052-.026-.009-.078-.035-.078-.07.017-.026.052-.069.052-.078.07-.183-.088-.183-.07-.262 0-.087.175-.026.192-.21 0-.026-.009-.087-.07-.113v-.009c.053 0 .097.018.131-.061-.13.018-.078-.096-.096-.175m-14.757-5.615c-.079-.01-.122-.114-.096-.192.026.026.2.096.28.113-.132.026-.097.079-.184.079m-.131.166c-.018 0-.018-.07-.061-.088-.035 0-.035.035-.009.088-.061-.018-.114-.044-.14.009-.026.043-.018.078.018.122.018.018.01.061-.018.114-.018.052-.087.13-.166.087-.087-.052-.07-.14-.043-.192.026-.044.043-.088.07-.088.052 0 .078-.009.096-.052.018-.06-.035-.087-.088-.122.061-.018.088-.044.061-.07-.035-.026-.087.026-.105 0-.009-.026.035-.043.053-.06.018-.027.043-.019.07 0l.235.113c.026.018.044.026.044.052 0 .035.009.07-.018.087m-.149-.445c-.034.061-.122.114-.183.053-.06-.061.01-.08-.07-.201.08.043.21.14.254.148m.401 1.956.114-.026c-.01.009-.01.043-.018.043.218.01.192-.192.28-.183 1.204.166.506-.515 1.929-.375.07 0 .096-.035.157-.088-.07.14-.079.367.07.393a.552.552 0 0 1 .244.105c.01.018 0 .026-.009.026a.706.706 0 0 0-.2.044c-.219.148-.227-.323-.454-.236-.018.01-.053.035-.07.044-.096 0-.219.113-.192.21a.207.207 0 0 1 .148-.088c-.009.026-.009.043-.009.052 0 .035.01.079.088.079.052 0 .06-.026.096-.026.009 0 .026.009.026.026 0 .087-.288-.053-.236.192 0 .009.026.052.044.078-.01.07.043.14.174.105-.017-.018-.07-.052-.06-.087h.06c.01 0 .027-.01.035-.035 0-.009 0-.018.01-.018.008.01.026.018.026.026 0 .018-.018.026-.018.053 0 .009.009.07.018.078-.01.088.122.184.253.088-.035 0-.123-.018-.131-.061.026-.01.06-.027.06-.027.027-.017.027-.043.027-.087.009-.018.018-.018.026-.018.018-.009.044-.009.061-.009.026 0 .035.01.044.018.026.061.096.105.183.079.157-.053.018-.192.148-.219.027-.009.061-.017.097 0 .122.027.305.027.34-.034.026-.061.01-.28-.122-.367-.07-.026.009-.122-.07-.245.14.061.28.123.463.123.34 0 .428-.053.576-.149.166-.096.358-.052.41-.043.044.009.08.034.062.087-.035.183.017.2-.018.27s-.184.019-.28.01c-.06 0-.105.035-.105.043-.087.018-.183.096-.174.192.026-.018.087-.07.148-.078 0 .017.01.034.01.034.008.123.139.166.218.08.009-.01.043 0 .026.017-.07.052-.192.166-.096.21.009 0 .035.017.07.034-.01.07.043.149.104.158-.018-.035-.026-.061.01-.14h.06c.07 0 .035-.149.114-.192.018-.01.026-.01.018 0-.027.087-.044.192.035.218.009 0 .034.01.06.018.027.061.105.114.21.052-.026-.009-.079-.034-.087-.07a.356.356 0 0 0 .043-.078c.061-.183-.096-.183-.096-.253 0-.096.175-.035.175-.219 0-.026-.01-.087-.079-.104v-.018c.052 0 .105.018.131-.053-.14.01-.087-.104-.114-.183 0-.009-.009-.018.01-.026.043-.035.07-.088.06-.192-.043.06-.192.13-.209.009 0-.01-.009-.096-.14-.07-.227.018-.384-.026-.803-.07.42-.026 1.196-.113 1.196-.392 0-.227-.253-.367-.986-.367-.743 0-3.013.27-3.013-.149 0-.262.769-.157 1.327-.14.027.044.08.08.166.106.952.27 1.947-.367 2.628-.14-.541-.49-1.23.052-1.955-.096.419-.01.864-.088.89-.201-.332.21-1.257-.148-1.641.096-.018.018-.044.035-.061.052-.699-.009-1.555-.096-1.555.323 0 .743 2.585.306 3.205.306.62 0 .75.061.75.183 0 .175-.62.219-.968.219-.577 0-2.987-.323-3.956-.026.061-.166.288-.41.184-.533.087-.044.157-.114.157-.192a.326.326 0 0 0-.184-.087c.027-.035-.009-.088-.043-.131-.01 0-.026-.105-.053-.123a.75.75 0 0 0-.218-.148c-.105-.052-.174-.052-.218-.061-.027-.01-.123.026-.131.026-.053-.018-.114-.018-.123.052a.323.323 0 0 0-.174-.078.376.376 0 0 0-.026.262c-.088.009-.175.235-.262.2.035.07.06.096.087.096-.07.131-.105.289-.183.297.026.044.052.07.079.088a.981.981 0 0 0-.027.227l-.078-.026c-.053-.01-.105-.01-.123-.01a1.176 1.176 0 0 0-.122-.026c-.113 0-.2-.192-.402-.314-.14-.079-.148-.157-.148-.297 0-.13.061-.244.052-.367 0-.018-.018-.078-.026-.113-.035-.079-.14-.14-.2-.131a.18.18 0 0 1 .078.13.33.33 0 0 0-.06.07c-.027.035-.036.088.008.132.01.009.01.009.01.026 0 .018 0 .026-.01.052-.009.026-.018.018-.018 0-.035-.087-.079-.218-.157-.227-.009 0-.044-.009-.061 0v-.026c0-.088-.096-.166-.21-.053.018 0 .07.01.088.044a.794.794 0 0 0-.026.096c-.01.096.06.131.166.131.018 0 .026.01.035.018 0 .01.009.026.009.044.009.018 0 .018-.01.009-.174-.07-.244.009-.244.078-.009.01-.009.044 0 .07-.06.044-.079.131.035.2 0-.034 0-.095.035-.104.009 0 .018-.009.026-.018.018.026.044.044.044.052.018 0 .043 0 .096-.035.018-.017.026-.017.043 0 .018.01.027.018.053.027.009.009.009.018 0 .026-.114.113-.096.218.052.244.018.01.026.018.026.035-.018.21-.288.166-.28-.035-.148.236.123.41.324.297.009-.009.018 0 .018.01.009.034.035.069.07.069 0-.01.017-.044.052-.044.009 0 .009.01.009.027.009.052.026.122.105.13-.018-.043 0-.087.017-.087.044 0 .192.288.49.454.06-.018.14-.018.174-.087 0 .026.026.052.061.07.009.14.105.305.07.305-.044 0-.515-.018-.611.035-.131.07-.472.2-.577.052-.035-.052-.018-.096-.06-.166-.036-.052-.08-.087-.114-.087h-.079c-.061-.07-.183-.07-.236-.035.044.018.088.026.131.088a.237.237 0 0 0-.035.07c-.035.043-.018.121.201.191.018.01.035.026.018.035a.121.121 0 0 1-.122-.009c-.079-.07-.096-.166-.201-.105-.01 0-.035.018-.061.026h-.026c-.096-.009-.236.105-.175.219a.154.154 0 0 1 .114-.105c.009.035.026.061.026.07.018.113.07.2.288.043.026-.009.026.018.018.018-.052.088-.2.192-.087.262.009 0 .034.026.052.044 0 0 0 .009-.01.018-.017.122.114.218.193.218a.225.225 0 0 1-.07-.2c.026.017.052.034.061.025.105-.043.061-.174.122-.218.018-.01.027 0 .027.018.009.052.034.174.165.157.114-.009.175-.114.166-.183-.009 0 0-.01.01 0 .043.018.078.07.069.13a.206.206 0 0 0 .087-.087c.027.053.035.14-.052.219a.291.291 0 0 0 .21-.219c.017.026.043.053.043.07.01 0 .01-.009.018-.009.044.018.122.026.253-.009.01 0 .018.009.018.018-.009.052-.009.105.01.13.008-.008.034-.069.06-.069.035 0-.009.131.07.2.026-.322.41-.156.62-.287.018-.018.026-.01.018.009a.248.248 0 0 1-.088.105c.061.009.149-.027.227-.08.14-.051.384-.156.367-.244m.829-3.161c.009 0 .009-.01.009-.01 0 .01 0 .01-.01.01m-.602-1.293c.027-.043.053-.087.08-.087.043 0 .078-.01.095-.061.018-.052-.035-.079-.087-.114.052-.018.079-.043.052-.06-.035-.036-.087.017-.096-.01-.009-.026.035-.043.044-.06.026-.019.043-.019.078 0l.227.104c.035.018.053.035.053.07 0 .018.009.07-.018.07-.026.009-.018-.07-.061-.07-.044-.01-.044.026-.018.079-.052-.01-.105-.044-.131.009-.026.043-.018.078.018.113.018.026 0 .07-.018.122-.018.053-.088.123-.166.08-.087-.036-.079-.132-.052-.184m.28-.594c-.044.07-.123.122-.184.061s.009-.079-.07-.2c.07.052.21.139.253.139m.175.096c.035.026.2.096.288.114-.13.026-.105.078-.183.078-.088-.009-.114-.113-.105-.192m-1.161.664c-.08-.07-.175-.192-.315-.28-.148-.078-.148-.157-.14-.296.01-.131.08-.254.08-.376a.465.465 0 0 1-.036-.105c-.017-.078-.122-.148-.183-.13.026.026.061.052.07.13-.035.027-.061.061-.07.07-.026.035-.043.079 0 .131.01.01.018.01.01.018 0 .018 0 .035-.01.061-.009.026-.009.018-.018 0-.026-.087-.06-.218-.148-.227 0 0-.035-.009-.053 0v-.018c.01-.096-.096-.175-.209-.06.018 0 .07.008.079.043a2.397 2.397 0 0 0-.026.087c-.01.105.06.14.165.14.018 0 .027.009.027.018.009.018.009.026.009.043.009.018 0 .018-.01.01-.165-.07-.244.008-.253.078v.07c-.06.043-.078.13.027.2 0-.034 0-.087.043-.104.01 0 .018-.01.018-.01.018.018.044.035.052.035.01.01.035 0 .096-.026.018-.009.027-.018.035-.009.018.018.035.026.053.035.009.01.009.018 0 .035-.123.105-.105.218.035.236.017.009.026.018.026.035-.026.21-.297.166-.27-.035-.167.236.095.41.305.297.009-.01.018-.01.018.009.009.035.026.07.07.078 0-.017.008-.052.043-.052.018 0 .018.018.018.026 0 .053.009.123.087.131-.009-.035.01-.078.035-.078.035 0 .122.157.288.253.14.06.236.21.323.113-.009.14.123.306.088.306-.044 0-.42-.026-.515.026-.14.079-.48.192-.577.052-.035-.043-.026-.096-.07-.165-.034-.053-.078-.088-.113-.096h-.079c-.052-.053-.174-.061-.227-.027a.215.215 0 0 1 .131.088c-.018.026-.035.06-.043.07-.027.043-.01.122.21.191.008 0 .025.027.008.035-.035.018-.079.018-.122-.018-.079-.06-.096-.157-.192-.096a.125.125 0 0 0-.07.035c-.009-.009-.018-.018-.026-.018-.087-.009-.236.114-.166.227.01-.026.044-.087.114-.096 0 .018.018.053.018.07.026.105.07.192.296.035.027-.01.027.009.018.018-.052.096-.2.183-.087.262 0 0 .026.026.052.043-.009 0-.009.01-.009.018-.026.122.114.219.184.219-.027-.035-.088-.105-.07-.192a.956.956 0 0 0 .06.017c.114-.043.062-.174.123-.218.018-.009.035 0 .035.018 0 .052.026.175.157.157.122-.009.183-.113.175-.174-.01-.018 0-.018.009-.018.043.026.078.078.06.14a.206.206 0 0 0 .088-.088c.026.052.035.14-.043.218.043-.018.174-.078.209-.218.018.018.035.052.044.07.009 0 .009 0 .009-.01.043.019.13.027.261-.008.01 0 .018.009.018.018-.018.052-.018.104.01.13 0-.017.034-.07.052-.07.035 0 0 .132.078.202.018-.323.201-.192.41-.323.019-.018.019-.01.019.009-.01.043-.044.078-.088.105.227.052.577-.289.629-.428.096-.018.175-.026.218-.026.646.06.192-.577 1.231-.402.07.018.192-.061.254-.114-.07.14-.079.42.07.446.06.018.191.052.244.104.009.018 0 .018-.01.027a1.056 1.056 0 0 0-.2.043c-.218.149-.227-.323-.463-.235-.009 0-.052.026-.06.052-.097 0-.228.105-.201.2a.267.267 0 0 1 .157-.087c-.01.026-.01.044-.01.052-.008.035.01.08.088.08.044 0 .052-.027.088-.027.017 0 .034.009.034.026 0 .088-.296-.052-.244.192a.601.601 0 0 1 .044.079c0 .07.052.148.183.096-.026-.009-.07-.044-.061-.079h.06c.01 0 .019-.009.027-.035 0-.009.01-.009.018-.009.018 0 .026.01.026.018 0 .018-.018.026-.018.053 0 0 .01.07.018.07-.009.095.122.191.253.104-.034-.009-.122-.026-.13-.07.026-.009.06-.017.06-.017a.172.172 0 0 0 .027-.097c0-.017.018-.026.026-.026h.06c.027 0 .036.01.044.018a.139.139 0 0 0 .184.07c.157-.052.018-.183.148-.219.018 0 .061-.009.096 0 .123.035.306.027.332-.026.035-.06.018-.28-.114-.358-.078-.043.01-.14-.07-.253.14.061.271.114.464.114.34 0 .427-.044.576-.14.166-.105.35-.052.401-.044.044.01.08.026.07.088-.035.174.018.192-.026.27-.026.07-.175.01-.27.01-.062-.01-.106.034-.106.043-.087.018-.183.096-.183.192.035-.026.088-.07.157-.079 0 .01.01.035.01.035.008.122.139.166.218.079.009-.01.043 0 .026.018-.07.052-.192.166-.096.21.009 0 .035.025.06.034 0 .07.053.149.114.157-.026-.035-.026-.06.01-.148h.052c.078.009.043-.14.13-.183.01-.018.019-.01.01 0-.027.087-.044.192.035.218.009 0 .034 0 .06.018.027.06.105.105.21.06-.026-.017-.087-.043-.096-.078.026-.026.052-.07.06-.079.044-.174-.104-.183-.104-.262 0-.087.175-.026.175-.209a.124.124 0 0 0-.08-.114c-.008 0-.008-.009 0-.009.053 0 .106.01.123-.06-.13.017-.087-.097-.105-.175 0-.01 0-.018.01-.026.034-.035.07-.088.06-.192-.043.06-.2.13-.21.009 0-.01-.008-.105-.148-.07-.218.018-.375-.026-.803-.07.49 0 1.196-.122 1.196-.393 0-.227-.244-.375-.986-.375-.734 0-2.393.28-2.393-.14 0-.2.323-.183.708-.166.034.035.078.07.165.088.943.28 2.07-.219 2.637-.061-.672-.515-1.24.018-1.956-.131.42 0 .56-.131.585-.236-.331.21-.951-.114-1.335.131a.159.159 0 0 0-.061.044c-.524-.018-.952-.018-.952.331 0 .743 1.982.315 2.593.315.62 0 .751.052.751.174 0 .175-.611.219-.96.219-.533 0-2.148-.28-3.135-.079.079-.166.253-.367.157-.489.096-.035.157-.105.157-.183-.052-.053-.122-.07-.174-.088.026-.043-.01-.087-.053-.13-.009-.01-.026-.105-.043-.123-.044-.035-.114-.096-.219-.148-.104-.053-.183-.053-.227-.061-.018-.01-.113.018-.13.018-.053-.01-.114-.01-.123.052-.044-.044-.105-.061-.174-.07a.38.38 0 0 0-.018.262c-.088.01-.184.236-.262.21.026.06.052.087.078.096-.07.122-.104.28-.183.288.052.07.087.105.122.105-.018.104-.018.2-.026.288l-.157-.061zm3.013-3.485c-.08 0-.114-.096-.096-.165.026.026.183.078.261.104-.122.018-.087.07-.165.061m-.123.157c-.018 0-.018-.07-.052-.07-.035-.008-.035.027-.009.07-.061-.017-.105-.043-.131.01-.018.034-.009.07.026.104.01.018 0 .061-.018.105s-.078.122-.157.079c-.07-.044-.06-.122-.043-.166.026-.052.043-.087.07-.087.043 0 .069 0 .087-.053.018-.052-.035-.07-.079-.105.052-.017.079-.034.052-.052-.035-.035-.078.018-.087-.009-.01-.026.026-.043.035-.052.018-.026.043-.018.07 0l.209.096c.026.018.044.026.044.061 0 .018.009.052-.018.07m-.131-.41c-.035.06-.114.104-.166.052-.061-.053 0-.07-.061-.175.06.044.192.122.227.122m2.008 1.11c.786.008 1.179-.254 1.179-.499 0-.881-2.174-.34-2.174-.873 0-.087.07-.157.166-.235 0 0-.01 0 0 0 1.091-.08 1.143-.865 1.92-1.005-.943-.14-1.082.603-1.484.638.219-.096.297-.358.28-.454-.192.262-.612.28-.847.576a.218.218 0 0 0-.044.157c-.14.088-.227.192-.227.315 0 .838 2.209.262 2.209.864 0 .21-.384.358-.987.358-.454 0-.785-.323-1.632-.105 0-.148.288-.41.183-.541.079-.035.13-.105.13-.175a.284.284 0 0 0-.156-.07c.026-.043-.01-.078-.044-.113-.009-.018-.026-.105-.043-.122a.964.964 0 0 0-.192-.131c-.097-.044-.166-.044-.201-.053-.026-.009-.114.018-.122.018-.053-.009-.105-.009-.114.053a.24.24 0 0 0-.157-.07.355.355 0 0 0-.018.236c-.079.009-.166.21-.236.192.026.052.052.078.07.078-.061.123-.088.262-.157.271a.095.095 0 0 0 .052.061c-.07.175-.105.393-.113.506h-.01a.643.643 0 0 0-.165-.14c-.131-.078-.123-.139-.105-.27.018-.105.096-.2.105-.306a.945.945 0 0 0-.027-.096c-.009-.07-.104-.122-.165-.113.026.026.06.043.052.113-.026.018-.061.044-.061.053-.026.035-.052.078-.01.113v.026c0 .01-.008.027-.017.044-.009.018-.009.009-.018 0-.018-.079-.035-.192-.113-.2h-.053v-.019c.018-.078-.078-.14-.192-.052.018.01.061.01.07.035-.01.026-.035.079-.035.087-.018.08.044.114.14.114.018 0 .026.009.035.018v.035c.009.018 0 .009-.018.009-.149-.061-.227 0-.236.06 0 .01-.009.044-.009.062-.061.035-.087.105.009.174 0-.026.009-.087.052-.096 0 0 .01 0 .018-.009.01.018.035.035.044.035.009.01.035.01.087-.018.018-.009.026-.018.044 0 .009 0 .026.01.043.026.01.01.01.01 0 .027-.13.087-.122.183.018.21.018 0 .018.008.018.025-.043.175-.297.14-.262-.035-.174.192.061.358.27.254.01-.01.019 0 .019.009.009.035.018.06.052.06 0 0 .018-.034.052-.034.01 0 .01.009.01.018 0 .052.008.104.078.113-.009-.026.01-.06.035-.06.026 0 .087.148.2.27a2.75 2.75 0 0 1-.488.148c-.044 0-.297-.026-.384.018-.123.061-.437.175-.524.052-.027-.043-.018-.087-.061-.157-.026-.043-.07-.078-.096-.078h-.07c-.052-.053-.166-.061-.21-.027.035.01.08.018.114.08-.018.017-.026.051-.035.06-.026.044-.009.105.192.175 0 0 .018.018.01.026-.036.018-.07.026-.114-.01-.07-.06-.088-.148-.175-.087a.154.154 0 0 0-.061.027c-.009-.01-.018-.01-.026-.01-.079-.008-.219.097-.149.193.01-.018.035-.07.096-.088a.38.38 0 0 1 .018.07c.027.096.07.175.271.035.026-.018.026.009.018.018-.052.079-.183.166-.079.236 0 0 .026.017.044.034 0 .01-.01.01-.01.018-.017.114.106.192.175.192-.034-.026-.078-.078-.07-.174.027.018.053.018.062.018.096-.035.052-.157.105-.192.017-.01.026 0 .026.018.009.043.035.148.148.14.114-.01.166-.106.149-.167 0-.009 0-.009.017-.009.035.027.07.07.053.131a.17.17 0 0 0 .087-.087c.018.061.026.131-.052.2a.262.262 0 0 0 .192-.191.155.155 0 0 1 .043.06s0-.008.01-.008c.043.018.113.026.235-.01.01-.008.01.01.01.019-.01.043-.01.096.017.113 0-.018.026-.06.044-.06.035 0 0 .121.07.182.026-.296.183-.174.366-.296.018-.018.026 0 .018.018a.164.164 0 0 1-.079.096c.07 0 .227-.07.227-.175 0-.026.053-.061.123-.096.06.009.166-.026.2-.096.018.026.044.113 0 .14.192.009.393-.21.472-.227.419-.088-.262-.385.594-.341a.38.38 0 0 0 .244-.087c-.07.122-.07.384.061.401a.544.544 0 0 1 .218.096c.01.01 0 .018-.009.018-.07.01-.157.035-.183.044-.192.14-.2-.297-.41-.21-.01 0-.044.027-.061.035-.088 0-.2.105-.175.192.026-.026.07-.07.14-.078-.01.018-.01.043-.01.043 0 .035.01.07.08.07.043 0 .052-.026.087-.026.009 0 .018.009.018.026 0 .087-.262-.044-.21.174 0 .01.027.053.035.07 0 .07.044.131.166.096-.026-.018-.06-.043-.052-.078.018 0 .044 0 .052.009.01 0 .018-.01.026-.044 0 0 0-.009.01-.009.017.009.026.009.026.026 0 .01-.018.026-.018.044 0 0 .009.06.018.07-.01.078.113.165.227.078-.035 0-.105-.018-.114-.052l.052-.026c.018-.01.027-.044.027-.079 0-.018.009-.018.018-.018.017 0 .043 0 .06-.009.027 0 .035.01.035.018a.133.133 0 0 0 .166.07c.14-.053.018-.175.131-.201.026 0 .061-.01.088 0 .113.026.28.026.305-.026.026-.053.018-.253-.105-.323-.07-.035.01-.123-.06-.227.122.052.253.104.419.104.305 0 .009-.043.148-.13.148-.097.323-.044.367-.035.035.009.07.026.06.078-.034.157.019.175-.017.236-.035.07-.166.018-.253.018-.053-.009-.097.026-.097.035-.078.018-.157.087-.157.174.027-.017.07-.06.14-.07v.036c.009.104.131.14.2.07.01-.01.036 0 .019.008-.061.053-.175.157-.079.192.009 0 .035.018.052.035 0 .061.044.123.096.14-.018-.035-.018-.061.018-.131h.053c.06.009.034-.131.104-.175.01-.009.018-.009.018.01-.026.078-.043.165.027.191.009 0 .034.01.06.01.01.06.088.104.184.06-.018-.009-.07-.035-.088-.07.027-.017.044-.06.053-.069.043-.166-.088-.166-.088-.236 0-.078.157-.026.157-.192a.107.107 0 0 0-.07-.096c-.008 0-.008-.009-.008-.009.052 0 .096.01.122-.052-.122.009-.087-.096-.096-.166-.01-.009-.01-.009 0-.026.035-.026.07-.07.052-.175-.035.061-.166.122-.183.01-.01-.01-.01-.08-.131-.062-.2.018-.297-.087-.681-.122-.026 0-.044-.018 0-.026M61 39.93l-.14-.018c-.174-.01-.384.07-.401.297-.018.227.148.35.349.358l.105.009-.245 1.606-1.598-2.279c.743-.296 1.354-.62 1.668-.62.262 0 .315.123.262.647m-3.117.358c.27-.061.541-.149.803-.245l1.886 2.716c-.06.375-.122.76-.174 1.135zm2.253 5.23L56.566 40.4h.331c.184 0 .367-.009.55-.035l2.856 4.104c-.061.393-.123.76-.166 1.048m-4.034-5.082 3.912 5.623c-2.087-.768-4.174-2.698-3.912-5.623m5.824-.445-.184-.01.01-.174c.026-.62-.35-1.091-1.03-1.091-.603 0-1.756.777-3.389.777-.69 0-1.51-.332-2.025-.629l-.21.48c.01-.017.01-.034.01-.043a.403.403 0 0 0-.402-.41.406.406 0 0 0 0 .812.384.384 0 0 0 .314-.158l-.2.49c.069.025.139.06.209.087-.236 2.462 1.528 5.58 4.75 6.54.471-.131 1.012-.044 1.012.48 0 .314-.157.463-.445.463-.192 0-.314-.114-.314-.245 0-.218.375-.087.419-.236.043-.192-.079-.279-.306-.279-.227 0-.559.14-.559.515 0 .445.35.707.725.707.367 0 1.118-.2 1.013-1.082.175.009.367-.018.41-.192l.035-.498-.174-.026.14-5.632.122.009c.21.018.384-.079.401-.306.018-.218-.166-.331-.331-.349m8.486-5.213v-.009c.14-.07.253-.166.297-.28a.338.338 0 0 1-.306-.034c.105-.061.236.009.114-.192-.131-.2-.219-.21-.35-.061-.122.13-.986-.044-.986-.69a.642.642 0 0 0 .28.254c.418.253.829.087.864-.253.026-.358-.306-.524-.681-.83a5.596 5.596 0 0 1-.376-.34c-.113-.254-.009-.48-.34-.935a1.906 1.906 0 0 0-.105-.41 1.18 1.18 0 0 0 .2 1.37c.359.394 1.127.77 1.1 1.11a.227.227 0 0 1-.218.183c-.174-.01-.34-.114-.515-.262a.272.272 0 0 1-.07-.07h-.008c-.315-.297-.603-.733-.795-.969-.358-.463-.192-.9-.14-1.283.254-.35-.148-1.057-.384-1.223 0 0 .052-.166-.018-.375-.052.043-.157.035-.218.035-.07-.131-.096-.166-.183-.175-.149-.026-.149-.122-.166-.175-.088.08-.123.158-.21.166-.13 0-.183 0-.236.044-.087.07-.13.096-.261.096-.149-.009-.149.079-.131.183.009.07.017.166.104.21.01.009.027.009.044.018l.114.13.078-.139c.061-.061.253-.079.288.061.018.096.035.122-.078.13-.123.019-.192.019-.315.019-.078.009-.078.113-.078.183.009.088.104.122.27.088.175-.044.48-.08.48.07 0 .383-.462.348-.558.82a.973.973 0 0 1-.253-.244 1.4 1.4 0 0 0-.324-.41 1.965 1.965 0 0 0-.331-.272c-.149-.087-.157-.157-.157-.314 0-.14.06-.262.052-.384a.456.456 0 0 0-.035-.122c-.018-.088-.14-.149-.2-.131.025.026.069.052.078.13a.31.31 0 0 0-.061.08c-.026.034-.044.087.009.13.009.01.009.018.009.027 0 .017-.01.034-.01.06-.008.027-.017.018-.017 0-.035-.096-.079-.235-.166-.235-.009 0-.052-.01-.07-.01 0 0 .01-.008.01-.017 0-.096-.114-.183-.228-.061.018.009.07.018.088.044a.814.814 0 0 0-.018.104c-.01.096.06.14.175.14.017 0 .026.009.034.018 0 .018 0 .035.01.044.008.026-.01.017-.018.017-.175-.078-.254 0-.254.08v.069c-.06.043-.078.14.044.21 0-.027-.01-.097.035-.114.009 0 .018 0 .026-.01.009.019.044.044.044.044.017.01.043.01.104-.035.01-.009.027-.009.035 0 .018.01.044.027.061.035.01.01.01.018 0 .035-.113.114-.096.219.044.253-.061.131-.27.07-.262-.113-.148.227.105.419.306.323.009.096 0 .253.034.253 0-.009.01-.043.044-.043.018 0 .018.009.018.017 0 .061.026.14.105.14-.01-.035 0-.07.018-.078.043.06.078.122.113.183.096.166.297.637.76.83-.236.13-.402.34-.541.514-.131.131-.315.254-.437.192-.052-.043-.061-.087-.131-.14-.052-.034-.114-.052-.148-.034a.265.265 0 0 0-.08.026c-.078-.035-.2.018-.226.079.035-.01.087-.026.157.026 0 .026-.009.07-.009.079-.009.06.035.113.28.104.017-.009.043 0 .026.018-.027.035-.061.061-.123.044-.104-.035-.157-.114-.227-.018l-.06.061h-.027c-.087.035-.183.21-.07.288a.18.18 0 0 1 .07-.148c.018.026.044.052.052.052.07.105.149.166.297-.07.018-.026.027-.009.027.01-.01.104-.114.261.026.288 0 0 .035.009.07.009v.026c.026.13.2.166.27.13a.242.242 0 0 1-.148-.156c.035 0 .06 0 .07-.01.087-.087-.019-.191.017-.253.018-.026.035-.018.035 0 .035.044.105.158.227.088.07-.044.105-.105.105-.157.157-.061.297-.114.42-.079-.027-.079.069-.2.244-.245.165-.043.244 0 .296.062a.87.87 0 0 1 .175-.306c-.018.681.89.664 1.1 1.065-.27-.113-.576-.165-.742-.14-.218.044-.611.245-.664.507-.034.21.175.576.393.725-.27.052-.349-.044-.593.026h-.027c-.209.018-.235-.35-.48-.253a.361.361 0 0 0-.07.052c-.096-.009-.235.114-.209.21a.267.267 0 0 1 .157-.088v.052c-.009.044.01.08.088.08.052 0 .06-.027.096-.027.018 0 .035.018.035.035 0 .087-.315-.052-.254.2 0 .01.027.053.044.08-.009.078.061.156.192.113-.026-.018-.079-.052-.061-.096.018 0 .052.009.052.009.018 0 .035-.018.035-.044 0-.009.01-.009.018-.009.018 0 .026.01.026.018 0 .018-.018.035-.018.061 0 0 .01.07.027.079-.018.096.122.192.253.096-.035 0-.122-.018-.131-.07.026-.009.06-.018.06-.026.027-.018.036-.052.036-.087 0-.027.018-.027.018-.027.026-.009.043-.009.07-.009.034 0 .043.01.043.027a.167.167 0 0 0 .192.078c.052-.018.07-.043.087-.07.035.018.07.044.105.07-.035-.105.044-.174.253-.035l.149-.113s.21.079.28-.01c.13-.121.06-.13.06-.235-.087-.2-.14-.175-.183-.375-.07-.332.402-.524.672-.48.061.226.358.785.856.951.314.105.445-.236.541-.183a.113.113 0 0 1 .053.07c-.018.165.009.305-.027.392-.035.07-.21.01-.314 0-.07 0-.122.044-.122.053-.096.018-.21.105-.201.21.035-.027.096-.08.175-.088v.043a.147.147 0 0 0 .253.088c.009-.018.043 0 .026.018-.079.06-.218.183-.096.235 0 0 .035.018.06.035 0 .079.062.157.132.166-.026-.035-.035-.06.009-.148h.06c.088 0 .053-.166.14-.219.01-.009.027-.009.019.01-.027.095-.044.209.043.235.01 0 .035.01.07.018.026.07.113.122.236.061-.027-.009-.097-.035-.105-.07a.492.492 0 0 1 .06-.087c.062-.2-.113-.21-.113-.297s.2-.026.2-.227c0-.009 0-.018-.008-.035.096-.052.192-.113.2-.192a.542.542 0 0 1-.253-.043m-1.221-4.307c-.052.07-.079.166-.052.236.034.104.122.192.305.2a.669.669 0 0 0-.236.437.663.663 0 0 0 .48-.114c-.043.184.019.297.114.35.053.043.123.052.201.035a11.09 11.09 0 0 1 1.52 4.164.817.817 0 0 0-.341-.07.687.687 0 0 0 .14.394h-2.524c-.009-.131-.087-.245-.175-.271-.104-.044-.227-.018-.349.122a.705.705 0 0 0-.2-.454.704.704 0 0 0-.201.454c-.123-.14-.245-.166-.35-.122-.087.026-.165.14-.174.27h-2.157a.672.672 0 0 0 .122-.383.657.657 0 0 0-.392.122v-3.502c.14 0 .27-.07.305-.174.035-.105.018-.227-.13-.34a.732.732 0 0 0 .453-.201.647.647 0 0 0-.454-.201c.149-.122.166-.253.131-.358-.035-.096-.166-.175-.305-.175v-2.968a.716.716 0 0 0 .323.122.678.678 0 0 0-.07-.384c1.493.462 2.899 1.45 4.016 2.811m2.637 5.746a11.323 11.323 0 0 0-2.34-5.772 9.581 9.581 0 0 0-2.156-2.017 7.84 7.84 0 0 0-2.506-1.126l-.157-.035v9.08h7.177zm-2.227-5.868a11.367 11.367 0 0 1 2.401 6.147h-7.482v-9.413c1.903.358 3.702 1.52 5.081 3.266m2.585 5.448a11.875 11.875 0 0 0-1.939-5.003.674.674 0 0 0 .28-.463.651.651 0 0 0-.515.14c-.07-.096-.14-.183-.21-.28-1.266-1.589-2.864-2.706-4.575-3.204-.026-.27-.27-.393-.42-.34a.26.26 0 0 0-.174.2.251.251 0 0 0-.087-.018.714.714 0 0 0-.393-.174.69.69 0 0 0 .122.463v.034c-.122 0-.2.061-.244.131-.079.131 0 .385.244.463v3.667a.7.7 0 0 0-.445.21.73.73 0 0 0 .445.2v3.965c-.236.06-.323.305-.262.428a.292.292 0 0 0 .262.165v.088a.828.828 0 0 0-.113.375.72.72 0 0 0 .358-.096h.104c.01.131.08.21.166.245.131.07.358-.018.428-.245h2.655c0 .149.06.306.2.454.14-.148.201-.305.201-.454h3.021c.061.253.314.35.454.28.088-.044.157-.131.149-.28h.07a.781.781 0 0 0 .4.114.725.725 0 0 0-.113-.358c0-.035 0-.07-.009-.105a.293.293 0 0 0 .262-.166c.061-.14-.052-.402-.323-.437M265.17 201.63h3.956v4.06h.104c1.782-3.17 4.645-4.654 8.313-4.654 6.723 0 8.81 3.86 8.81 9.351v16.826h-4.209v-17.323c0-3.117-1.982-5.143-5.195-5.143-5.1 0-7.579 3.414-7.579 8.015v14.45h-4.2zm-16.214 22.466c4.41 0 7.972-3.467 7.972-9.648 0-6.235-3.563-9.701-7.972-9.701-4.4 0-7.963 3.466-7.963 9.7 0 6.182 3.562 9.649 7.963 9.649m0-23.06c8.12 0 12.425 5.885 12.425 13.412 0 7.474-4.305 13.359-12.425 13.359-8.112 0-12.416-5.885-12.416-13.36 0-7.526 4.304-13.411 12.416-13.411m-20.51.594h4.208v25.583h-4.208zm4.208-4.61h-4.208v-5.143h4.208zm-12.643 4.61h5.1v3.71h-5.1v15.883c0 1.93.55 2.28 3.17 2.28h1.93v3.71h-3.214c-4.357 0-6.086-.89-6.086-5.588V205.34h-4.357v-3.711h4.357v-7.675h4.2zM204.722 214c-1.633 1.188-4.802 1.24-7.623 1.729-2.767.498-5.142 1.484-5.142 4.602 0 2.767 2.375 3.763 4.95 3.763 5.536 0 7.815-3.467 7.815-5.79zm6.828 13.115c-.742.445-1.676.69-3.012.69-2.183 0-3.571-1.188-3.571-3.956-2.323 2.716-5.44 3.956-9.003 3.956-4.654 0-8.46-2.078-8.46-7.178 0-5.789 4.304-7.028 8.652-7.867 4.654-.89 8.618-.593 8.618-3.763 0-3.658-3.02-4.252-5.692-4.252-3.563 0-6.191 1.091-6.383 4.846h-4.209c.245-6.33 5.143-8.557 10.836-8.557 4.601 0 9.605 1.039 9.605 7.029v13.158c0 1.982 0 2.873 1.336 2.873.349 0 .742-.053 1.283-.245zm-43.963-7.972c.148 3.763 3.414 4.95 6.88 4.95 2.62 0 6.182-.593 6.182-3.806 0-3.266-4.156-3.816-8.364-4.75-4.157-.943-8.365-2.331-8.365-7.23 0-5.143 5.099-7.273 9.552-7.273 5.64 0 10.146 1.781 10.495 8.015h-4.208c-.297-3.265-3.17-4.304-5.938-4.304-2.523 0-5.448.69-5.448 3.265 0 3.013 4.462 3.51 8.365 4.453 4.208.943 8.364 2.323 8.364 7.274 0 6.086-5.693 8.068-10.888 8.068-5.736 0-10.591-2.323-10.836-8.662zm-12.093-17.515h4.2v25.583h-4.2zm4.2-4.61h-4.2v-5.143h4.2zm-30.578 4.61h3.955v4.06h.097c1.78-3.17 4.653-4.654 8.32-4.654 6.724 0 8.802 3.86 8.802 9.351v16.826h-4.2v-17.323c0-3.117-1.982-5.143-5.204-5.143-5.09 0-7.57 3.414-7.57 8.015v14.45h-4.2zM119.363 214c-1.633 1.188-4.802 1.24-7.623 1.729-2.767.498-5.142 1.484-5.142 4.602 0 2.767 2.375 3.763 4.942 3.763 5.544 0 7.823-3.467 7.823-5.79zm6.828 13.115c-.742.445-1.685.69-3.021.69-2.174 0-3.563-1.188-3.563-3.956-2.322 2.716-5.44 3.956-9.002 3.956-4.654 0-8.47-2.078-8.47-7.178 0-5.789 4.314-7.028 8.662-7.867 4.654-.89 8.618-.593 8.618-3.763 0-3.658-3.02-4.252-5.693-4.252-3.562 0-6.19 1.091-6.382 4.846h-4.209c.245-6.33 5.143-8.557 10.836-8.557 4.601 0 9.605 1.039 9.605 7.029v13.158c0 1.982 0 2.873 1.335 2.873.341 0 .743-.053 1.284-.245zm-31.992-13.22c0-4.505-1.982-9.15-7.273-9.15-5.397 0-7.58 4.4-7.58 9.299 0 4.61 1.686 9.753 7.23 9.753 5.545 0 7.623-5.1 7.623-9.902m4.156 11.142c0 8.312-3.807 12.564-11.875 12.564-4.802 0-10.347-1.93-10.591-7.517h4.2c.2 3.064 3.868 4.156 6.636 4.156 5.492 0 7.666-3.956 7.666-9.7v-1.686h-.096c-1.388 3.117-4.75 4.654-7.963 4.654-7.623 0-11.439-5.99-11.439-12.966 0-6.034 2.978-13.508 11.832-13.508 3.213 0 6.085 1.432 7.622 4.252h.044v-3.658h3.964zm-37.414-23.41h3.955v5.397h.105c2.026-4.113 4.846-6.139 9.404-5.99v4.453c-6.785 0-9.256 3.86-9.256 10.347v11.377h-4.208zm-21.087 22.467c8.618 0 12.233-7.422 12.233-14.547 0-7.125-3.615-14.555-12.233-14.555-8.61 0-12.224 7.43-12.224 14.555s3.615 14.547 12.224 14.547m0-33.058c11.237 0 16.93 8.906 16.93 18.511 0 9.596-5.693 18.51-16.93 18.51-11.229 0-16.922-8.914-16.922-18.51 0-9.605 5.693-18.51 16.922-18.51m255.047-41.405h5.1v3.72h-5.1v15.882c0 1.93.541 2.279 3.17 2.279H300v3.71h-3.214c-4.357 0-6.095-.89-6.095-5.596v-16.276h-4.357v-3.72h4.357v-7.666h4.209zm-31.984 0h3.956v4.06h.105c1.78-3.17 4.654-4.654 8.312-4.654 6.732 0 8.81 3.868 8.81 9.36v16.826h-4.209V157.9c0-3.117-1.982-5.143-5.195-5.143-5.099 0-7.57 3.414-7.57 8.015v14.45h-4.209zm-7.91 10.346c-.201-4.007-3.222-7.23-7.378-7.23-4.401 0-7.03 3.319-7.326 7.23zm4.051 7.125c-1.135 5.64-5.195 8.714-10.932 8.714-8.164 0-12.023-5.64-12.276-13.464 0-7.666 5.047-13.306 12.032-13.306 9.054 0 11.822 8.46 11.578 14.642h-19.157c-.149 4.453 2.375 8.418 7.972 8.418 3.466 0 5.885-1.686 6.636-5.004zm-62.84-17.471h3.964v3.763h.096c1.877-2.873 4.75-4.357 8.269-4.357 3.117 0 5.98 1.24 7.02 4.357 1.737-2.716 4.75-4.357 8.024-4.357 5.09 0 8.513 2.13 8.513 7.43v18.756h-4.209v-16.782c0-3.161-.846-5.684-4.95-5.684-4.06 0-6.68 2.567-6.68 6.53v15.936h-4.208v-16.782c0-3.318-1.04-5.684-4.803-5.684-4.994 0-6.828 4.601-6.828 6.53v15.936h-4.208zm-7.911 10.346c-.2-4.007-3.213-7.23-7.378-7.23-4.4 0-7.02 3.319-7.317 7.23zm4.06 7.125c-1.135 5.64-5.195 8.714-10.94 8.714-8.164 0-12.024-5.64-12.268-13.464 0-7.666 5.046-13.306 12.023-13.306 9.055 0 11.822 8.46 11.578 14.642h-19.148c-.149 4.453 2.375 8.417 7.963 8.417 3.466 0 5.885-1.685 6.636-5.003zm-31.154-5.195c0-4.505-1.982-9.15-7.273-9.15-5.396 0-7.58 4.4-7.58 9.299 0 4.601 1.686 9.753 7.23 9.753 5.545 0 7.623-5.1 7.623-9.902m4.156 11.133c0 8.32-3.815 12.573-11.875 12.573-4.802 0-10.346-1.93-10.59-7.518h4.199c.2 3.065 3.868 4.156 6.636 4.156 5.492 0 7.675-3.964 7.675-9.7v-1.685h-.105c-1.388 3.117-4.75 4.653-7.963 4.653-7.623 0-11.438-5.99-11.438-12.966 0-6.042 2.968-13.516 11.83-13.516 3.214 0 6.087 1.44 7.623 4.26h.053v-3.658h3.955zm-31.547-11.037c-1.632 1.188-4.802 1.24-7.622 1.738-2.768.489-5.143 1.484-5.143 4.601 0 2.768 2.375 3.763 4.95 3.763 5.545 0 7.815-3.466 7.815-5.788zm6.828 13.115c-.742.445-1.676.698-3.012.698-2.183 0-3.571-1.187-3.571-3.964-2.323 2.725-5.44 3.964-9.002 3.964-4.654 0-8.461-2.078-8.461-7.177 0-5.789 4.304-7.029 8.661-7.867 4.654-.89 8.61-.594 8.61-3.763 0-3.659-3.021-4.252-5.693-4.252-3.563 0-6.19 1.082-6.383 4.845h-4.208c.244-6.339 5.142-8.565 10.835-8.565 4.61 0 9.605 1.039 9.605 7.037v13.159c0 1.982 0 2.872 1.336 2.872.35 0 .742-.052 1.283-.253zm-48.93-25.487h3.954v4.06h.105c1.782-3.17 4.645-4.654 8.313-4.654 6.732 0 8.81 3.868 8.81 9.36v16.826h-4.209V157.9c0-3.117-1.982-5.143-5.195-5.143-5.1 0-7.57 3.414-7.57 8.015v14.45h-4.209zm-9.754 12.372c-1.633 1.188-4.802 1.24-7.623 1.738-2.767.489-5.142 1.484-5.142 4.601 0 2.768 2.375 3.763 4.95 3.763 5.545 0 7.815-3.466 7.815-5.788zm6.828 13.115c-.742.445-1.676.698-3.012.698-2.183 0-3.563-1.187-3.563-3.964-2.331 2.725-5.448 3.964-9.01 3.964-4.655 0-8.461-2.078-8.461-7.177 0-5.789 4.304-7.029 8.661-7.867 4.654-.89 8.61-.594 8.61-3.763 0-3.659-3.022-4.252-5.694-4.252-3.562 0-6.181 1.082-6.382 4.845h-4.209c.253-6.339 5.152-8.565 10.845-8.565 4.601 0 9.596 1.039 9.596 7.037v13.159c0 1.982 0 2.872 1.336 2.872.349 0 .742-.052 1.283-.253zm-63.783-35.232h6.435l11.132 29.696 11.185-29.696h6.435v35.336h-4.453v-29.399h-.096l-11.036 29.4h-4.017l-11.031-29.4h-.105v29.399h-4.453zm135.931-31.896c-.2-4.008-3.222-7.23-7.378-7.23-4.4 0-7.029 3.318-7.326 7.23zm4.052 7.125c-1.135 5.64-5.196 8.714-10.932 8.714-8.173 0-12.032-5.65-12.277-13.464 0-7.675 5.047-13.316 12.024-13.316 9.054 0 11.83 8.461 11.586 14.652h-19.157c-.148 4.453 2.375 8.408 7.972 8.408 3.467 0 5.885-1.676 6.628-4.994zM116.9 97.645h3.955v4.06h.105c1.781-3.17 4.654-4.654 8.312-4.654 6.732 0 8.81 3.86 8.81 9.352v16.834h-4.208v-17.323c0-3.117-1.974-5.152-5.195-5.152-5.1 0-7.57 3.414-7.57 8.016v14.459h-4.21zm-9.352 0h4.209v25.592h-4.209zm4.209-4.602h-4.209v-5.142h4.209zm-20.109 4.602h3.956v5.396h.104c2.026-4.104 4.846-6.138 9.404-5.99v4.453c-6.784 0-9.255 3.86-9.255 10.347v11.386h-4.209zm-9.683 12.372c-1.633 1.188-4.802 1.24-7.623 1.738-2.767.489-5.142 1.484-5.142 4.602 0 2.767 2.375 3.763 4.95 3.763 5.545 0 7.815-3.467 7.815-5.798zm6.828 13.115c-.742.445-1.676.69-3.012.69-2.183 0-3.563-1.179-3.563-3.955-2.331 2.724-5.448 3.955-9.01 3.955-4.655 0-8.462-2.078-8.462-7.169 0-5.789 4.305-7.028 8.662-7.875 4.654-.891 8.61-.585 8.61-3.755 0-3.667-3.022-4.26-5.694-4.26-3.562 0-6.181 1.09-6.382 4.854h-4.209c.253-6.34 5.152-8.566 10.845-8.566 4.601 0 9.596 1.04 9.596 7.03v13.166c0 1.973 0 2.873 1.335 2.873.35 0 .743-.052 1.284-.253zM25.01 87.901h6.436l11.132 29.695 11.185-29.695h6.435v35.336h-4.453V93.838h-.096l-11.036 29.399h-4.017l-11.031-29.4h-.105v29.4h-4.453z"/>
</svg>
